<svg xmlns="http://www.w3.org/2000/svg" width="800" height="800" viewBox="0 0 211.7 211.7">
  <defs/>
  <g stroke="#000">
    <g fill="#888" stroke-linecap="round" stroke-linejoin="round" paint-order="markers fill stroke">
      <path stroke-width=".7937399999999999" d="M-21 23v6.4l5.6 3.2 5.5 3.2v12.7l5.5 3.2V32.6l-5.5-3.2-5.5-3.1z"/>
      <path stroke-width=".8" d="M12.1 23v6.4l-5.5 3.2-5.5 3.2v12.7l-5.5 3.2V32.6L1 29.4l5.5-3.1zM-21 23l5.6-3.1L-10 23l5.5 3.2L1 23l5.5-3.2L12 23l-5.5 3.2-5.5 3.1-5.5 3.2-5.5-3.2-5.5-3.1z"/>
    </g>
    <path fill="none" stroke-width="1.3" d="M-21 23l5.6-3.1 11 6.4 11-6.4L12 23v6.3l-11 6.4v12.7l-5.5 3.2-5.5-3.2V35.8l-11-6.3z"/>
  </g>
  <g stroke="#000">
    <g fill="#888" stroke-linecap="round" stroke-linejoin="round" paint-order="markers fill stroke">
      <path stroke-width=".7937399999999999" d="M-21 48.5V55l5.6 3.2 5.5 3.2V74l5.5 3.2V58l-5.5-3.2-5.5-3.2z"/>
      <path stroke-width=".8" d="M12.1 48.5V55L6.6 58l-5.5 3.2V74l-5.5 3.2V58L1 54.9l5.5-3.2z"/>
      <path stroke-width=".8" d="M-21 48.5l5.6-3.2 5.5 3.2 5.5 3.2L1 48.5l5.5-3.2 5.5 3.2-5.5 3.2-5.5 3.2-5.5 3.2-5.5-3.2-5.5-3.2z"/>
    </g>
    <path fill="none" stroke-width="1.3" d="M-21 48.5l5.6-3.2 11 6.4 11-6.4 5.5 3.2V55l-11 6.4V74l-5.5 3.2L-10 74V61.3l-11-6.4z"/>
  </g>
  <g stroke="#000">
    <g fill="#888" stroke-linecap="round" stroke-linejoin="round" paint-order="markers fill stroke">
      <path stroke-width=".7937399999999999" d="M-21 74v6.3l5.6 3.2 5.5 3.2v12.7l5.5 3.2V83.5l-5.5-3.2-5.5-3.1z"/>
      <path stroke-width=".8" d="M12.1 74v6.3l-5.5 3.2-5.5 3.2v12.7l-5.5 3.2V83.5L1 80.3l5.5-3.1z"/>
      <path stroke-width=".8" d="M-21 74l5.6-3.2L-10 74l5.5 3.2L1 74l5.5-3.2L12 74l-5.5 3.2-5.5 3.1-5.5 3.2-5.5-3.2-5.5-3.1z"/>
    </g>
    <path fill="none" stroke-width="1.3" d="M-21 74l5.6-3.2 11 6.4 11-6.4L12 74v6.3l-11 6.4v12.7l-5.5 3.2-5.5-3.2V86.7l-11-6.3z"/>
  </g>
  <g stroke="#000">
    <g fill="#888" stroke-linecap="round" stroke-linejoin="round" paint-order="markers fill stroke">
      <path stroke-width=".7937399999999999" d="M-21 99.4v6.4l5.6 3.2 5.5 3.2v12.7l5.5 3.2V109l-5.5-3.2-5.5-3.2z"/>
      <path stroke-width=".8" d="M12.1 99.4v6.4L6.6 109l-5.5 3.2v12.7l-5.5 3.2V109l5.5-3.2 5.5-3.2zM-21 99.4l5.6-3.2 5.5 3.2 5.5 3.2L1 99.4l5.5-3.2 5.5 3.2-5.5 3.2-5.5 3.2-5.5 3.2-5.5-3.2-5.5-3.2z"/>
    </g>
    <path fill="none" stroke-width="1.3" d="M-21 99.4l5.6-3.2 11 6.4 11-6.4 5.5 3.2v6.4l-11 6.4v12.7l-5.5 3.2-5.5-3.2v-12.7l-11-6.4z"/>
  </g>
  <g stroke="#000">
    <g fill="#888" stroke-linecap="round" stroke-linejoin="round" paint-order="markers fill stroke">
      <path stroke-width=".7937399999999999" d="M-21 124.9v6.3l5.6 3.2 5.5 3.2v12.7l5.5 3.2v-19.1l-5.5-3.2-5.5-3.2z"/>
      <path stroke-width=".8" d="M12.1 124.9v6.3l-5.5 3.2-5.5 3.2v12.7l-5.5 3.2v-19.1l5.5-3.2 5.5-3.2z"/>
      <path stroke-width=".8" d="M-21 124.9l5.6-3.2 5.5 3.2 5.5 3.2 5.5-3.2 5.5-3.2 5.5 3.2-5.5 3.1-5.5 3.2-5.5 3.2-5.5-3.2-5.5-3.2z"/>
    </g>
    <path fill="none" stroke-width="1.3" d="M-21 124.9l5.6-3.2 11 6.4 11-6.4 5.5 3.2v6.3l-11 6.4v12.7l-5.5 3.2-5.5-3.2v-12.7l-11-6.3z"/>
  </g>
  <g stroke="#000">
    <g fill="#888" stroke-linecap="round" stroke-linejoin="round" paint-order="markers fill stroke">
      <path stroke-width=".7937399999999999" d="M-21 150.3v6.4l5.6 3.2 5.5 3.1v12.8l5.5 3.1v-19l-5.5-3.2-5.5-3.2z"/>
      <path stroke-width=".8" d="M12.1 150.3v6.4l-5.5 3.2-5.5 3.1v12.8l-5.5 3.1v-19l5.5-3.2 5.5-3.2zM-21 150.3l5.6-3.2 5.5 3.2 5.5 3.2 5.5-3.2 5.5-3.2 5.5 3.2-5.5 3.2-5.5 3.2-5.5 3.2-5.5-3.2-5.5-3.2z"/>
    </g>
    <path fill="none" stroke-width="1.3" d="M-21 150.3l5.6-3.2 11 6.4 11-6.4 5.5 3.2v6.4l-11 6.3v12.8l-5.5 3.1-5.5-3.1V163l-11-6.3z"/>
  </g>
  <g stroke="#000">
    <g fill="#888" stroke-linecap="round" stroke-linejoin="round" paint-order="markers fill stroke">
      <path stroke-width=".7937399999999999" d="M-21 175.8v6.3l5.6 3.2 5.5 3.2v12.7l5.5 3.2v-19.1l-5.5-3.2-5.5-3.2z"/>
      <path stroke-width=".8" d="M12.1 175.8v6.3l-5.5 3.2-5.5 3.2v12.7l-5.5 3.2v-19.1l5.5-3.2 5.5-3.2z"/>
      <path stroke-width=".8" d="M-21 175.8l5.6-3.2 5.5 3.2 5.5 3.1 5.5-3.1 5.5-3.2 5.5 3.2-5.5 3.1-5.5 3.2-5.5 3.2-5.5-3.2-5.5-3.2z"/>
    </g>
    <path fill="none" stroke-width="1.3" d="M-21 175.8l5.6-3.2 11 6.3 11-6.3 5.5 3.2v6.3l-11 6.4v12.7l-5.5 3.2-5.5-3.2v-12.7l-11-6.3z"/>
  </g>
  <g stroke="#000">
    <g fill="#888" stroke-linecap="round" stroke-linejoin="round" paint-order="markers fill stroke">
      <path stroke-width=".7937399999999999" d="M-21 201.2v6.4l5.6 3.2 5.5 3.1v12.8l5.5 3.1v-19l-5.5-3.2-5.5-3.2z"/>
      <path stroke-width=".8" d="M12.1 201.2v6.4l-5.5 3.2-5.5 3.1v12.8l-5.5 3.1v-19l5.5-3.2 5.5-3.2zM-21 201.2l5.6-3.2 5.5 3.2 5.5 3.2 5.5-3.2 5.5-3.2 5.5 3.2-5.5 3.2-5.5 3.2-5.5 3.2-5.5-3.2-5.5-3.2z"/>
    </g>
    <path fill="none" stroke-width="1.3" d="M-21 201.2l5.6-3.2 11 6.4 11-6.4 5.5 3.2v6.4l-11 6.3v12.8l-5.5 3.1-5.5-3.1v-12.8l-11-6.3z"/>
  </g>
  <g stroke="#000">
    <g fill="#888" stroke-linecap="round" stroke-linejoin="round" paint-order="markers fill stroke">
      <path stroke-width=".7937399999999999" d="M-21-2.4V4l5.6 3.2 5.5 3.2V23l5.5 3.2V7.2L-10 4-15.4.8z"/>
      <path stroke-width=".8" d="M12.1-2.4V4L6.6 7.2l-5.5 3.2V23l-5.5 3.2V7.2L1 4 6.6.8z"/>
      <path stroke-width=".8" d="M-21-2.4l5.6-3.2 5.5 3.2L-4.4.8 1-2.4l5.5-3.2L12-2.4 6.6.8 1.1 4l-5.5 3.2L-10 4-15.4.8z"/>
    </g>
    <path fill="none" stroke-width="1.3" d="M-21-2.4l5.6-3.2 11 6.4 11-6.4L12-2.4V4l-11 6.4V23l-5.5 3.2L-10 23V10.4L-21 4z"/>
  </g>
  <g stroke="#000">
    <g fill="#888" stroke-linecap="round" stroke-linejoin="round" paint-order="markers fill stroke">
      <path stroke-width=".7937399999999999" d="M-21-27.8v6.3l5.6 3.2L-10-15v12.7L-4.4.8v-19.1l-5.5-3.2-5.5-3.1z"/>
      <path stroke-width=".8" d="M12.1-27.8v6.3l-5.5 3.2L1.1-15v12.7L-4.4.8v-19.1L1-21.5l5.5-3.1z"/>
      <path stroke-width=".8" d="M-21-27.8l5.6-3.2 5.5 3.2 5.5 3.2L1-27.8 6.6-31l5.5 3.2-5.5 3.2-5.5 3.1-5.5 3.2-5.5-3.2-5.5-3.1z"/>
    </g>
    <path fill="none" stroke-width="1.3" d="M-21-27.8l5.6-3.2 11 6.4 11-6.4 5.5 3.2v6.3L1.1-15v12.7L-4.4.8-10-2.4V-15l-11-6.3z"/>
  </g>
  <g stroke="#000">
    <g fill="#888" stroke-linecap="round" stroke-linejoin="round" paint-order="markers fill stroke">
      <path stroke-width=".7937399999999999" d="M1 35.8v6.4l5.6 3.2 5.5 3.1v12.8l5.5 3.1v-19l-5.5-3.2L6.6 39z"/>
      <path stroke-width=".8" d="M34.2 35.8v6.4l-5.5 3.2-5.6 3.1v12.8l-5.5 3.1v-19l5.5-3.2 5.6-3.2z"/>
      <path stroke-width=".8" d="M1 35.8l5.6-3.2 5.5 3.2 5.5 3.2 5.5-3.2 5.5-3.2 5.6 3.2-5.5 3.2-5.6 3.2-5.5 3.2-5.5-3.2L6.6 39z"/>
    </g>
    <path fill="none" stroke-width="1.3" d="M1 35.8l5.6-3.2 11 6.4 11-6.4 5.6 3.2v6.4l-11 6.3v12.8l-5.6 3.1-5.5-3.1V48.5l-11-6.3z"/>
  </g>
  <g stroke="#000">
    <g fill="#888" stroke-linecap="round" stroke-linejoin="round" paint-order="markers fill stroke">
      <path stroke-width=".7937399999999999" d="M1 61.3v6.3l5.6 3.2 5.5 3.2v12.7l5.5 3.2V70.8l-5.5-3.2-5.5-3.2z"/>
      <path stroke-width=".8" d="M34.2 61.3v6.3l-5.5 3.2L23 74v12.7l-5.5 3.2V70.8l5.5-3.2 5.6-3.2z"/>
      <path stroke-width=".8" d="M1 61.3L6.7 58l5.5 3.2 5.5 3.1 5.5-3.1 5.5-3.2 5.6 3.2-5.5 3.1-5.6 3.2-5.5 3.2-5.5-3.2-5.5-3.2z"/>
    </g>
    <path fill="none" stroke-width="1.3" d="M1 61.3L6.7 58l11 6.3 11-6.3 5.6 3.2v6.3l-11 6.4v12.7l-5.6 3.2-5.5-3.2V74l-11-6.4z"/>
  </g>
  <g stroke="#000">
    <g fill="#888" stroke-linecap="round" stroke-linejoin="round" paint-order="markers fill stroke">
      <path stroke-width=".7937399999999999" d="M1 86.7v6.4l5.6 3.2 5.5 3.1v12.8l5.5 3.1v-19L12.1 93l-5.5-3.2z"/>
      <path stroke-width=".8" d="M34.2 86.7v6.4l-5.5 3.2-5.6 3.1v12.8l-5.5 3.1v-19l5.5-3.2 5.6-3.2z"/>
      <path stroke-width=".8" d="M1 86.7l5.6-3.2 5.5 3.2 5.5 3.2 5.5-3.2 5.5-3.2 5.6 3.2-5.5 3.2L23 93l-5.5 3.2-5.5-3.2-5.5-3.2z"/>
    </g>
    <path fill="none" stroke-width="1.3" d="M1 86.7l5.6-3.2 11 6.4 11-6.4 5.6 3.2v6.4l-11 6.3v12.8l-5.6 3.1-5.5-3.1V99.4l-11-6.3z"/>
  </g>
  <g stroke="#000">
    <g fill="#888" stroke-linecap="round" stroke-linejoin="round" paint-order="markers fill stroke">
      <path stroke-width=".7937399999999999" d="M1 112.2v6.3l5.6 3.2 5.5 3.2v12.7l5.5 3.2v-19.1l-5.5-3.2-5.5-3.2z"/>
      <path stroke-width=".8" d="M34.2 112.2v6.3l-5.5 3.2-5.6 3.2v12.7l-5.5 3.2v-19.1l5.5-3.2 5.6-3.2z"/>
      <path stroke-width=".8" d="M1 112.2l5.6-3.2 5.5 3.2 5.5 3.1 5.5-3.1 5.5-3.2 5.6 3.2-5.5 3.1-5.6 3.2-5.5 3.2-5.5-3.2-5.5-3.2z"/>
    </g>
    <path fill="none" stroke-width="1.3" d="M1 112.2l5.6-3.2 11 6.3 11-6.3 5.6 3.2v6.3l-11 6.4v12.7l-5.6 3.2-5.5-3.2v-12.7l-11-6.4z"/>
  </g>
  <g stroke="#000">
    <g fill="#888" stroke-linecap="round" stroke-linejoin="round" paint-order="markers fill stroke">
      <path stroke-width=".7937399999999999" d="M1 137.6v6.4l5.6 3.1 5.5 3.2V163l5.5 3.2v-19.1l-5.5-3.1-5.5-3.2z"/>
      <path stroke-width=".8" d="M34.2 137.6v6.4l-5.5 3.1-5.6 3.2V163l-5.5 3.2v-19.1l5.5-3.1 5.6-3.2z"/>
      <path stroke-width=".8" d="M1 137.6l5.6-3.2 5.5 3.2 5.5 3.2 5.5-3.2 5.5-3.2 5.6 3.2-5.5 3.2L23 144l-5.5 3.1-5.5-3.1-5.5-3.2z"/>
    </g>
    <path fill="none" stroke-width="1.3" d="M1 137.6l5.6-3.2 11 6.4 11-6.4 5.6 3.2v6.4l-11 6.3V163l-5.6 3.2-5.5-3.2v-12.7l-11-6.3z"/>
  </g>
  <g stroke="#000">
    <g fill="#888" stroke-linecap="round" stroke-linejoin="round" paint-order="markers fill stroke">
      <path stroke-width=".7937399999999999" d="M1 163v6.4l5.6 3.2 5.5 3.2v12.7l5.5 3.2v-19.1l-5.5-3.2-5.5-3.2z"/>
      <path stroke-width=".8" d="M34.2 163v6.4l-5.5 3.2-5.6 3.2v12.7l-5.5 3.2v-19.1l5.5-3.2 5.6-3.2z"/>
      <path stroke-width=".8" d="M1 163l5.6-3.1 5.5 3.1 5.5 3.2 5.5-3.2 5.5-3.1 5.6 3.2-5.5 3.1-5.6 3.2-5.5 3.2-5.5-3.2-5.5-3.2z"/>
    </g>
    <path fill="none" stroke-width="1.3" d="M1 163l5.6-3.1 11 6.3 11-6.3 5.6 3.2v6.3l-11 6.4v12.7l-5.6 3.2-5.5-3.2v-12.7l-11-6.4z"/>
  </g>
  <g stroke="#000">
    <g fill="#888" stroke-linecap="round" stroke-linejoin="round" paint-order="markers fill stroke">
      <path stroke-width=".7937399999999999" d="M1 188.5v6.4l5.6 3.1 5.5 3.2V214l5.5 3.2V198l-5.5-3.1-5.5-3.2z"/>
      <path stroke-width=".8" d="M34.2 188.5v6.4l-5.5 3.1-5.6 3.2V214l-5.5 3.2V198l5.5-3.1 5.6-3.2z"/>
      <path stroke-width=".8" d="M1 188.5l5.6-3.2 5.5 3.2 5.5 3.2 5.5-3.2 5.5-3.2 5.6 3.2-5.5 3.2-5.6 3.2-5.5 3.1-5.5-3.1-5.5-3.2z"/>
    </g>
    <path fill="none" stroke-width="1.3" d="M1 188.5l5.6-3.2 11 6.4 11-6.4 5.6 3.2v6.4l-11 6.3V214l-5.6 3.2-5.5-3.2v-12.7l-11-6.3z"/>
  </g>
  <g stroke="#000">
    <g fill="#888" stroke-linecap="round" stroke-linejoin="round" paint-order="markers fill stroke">
      <path stroke-width=".7937399999999999" d="M1 214v6.3l5.6 3.2 5.5 3.2v12.7l5.5 3.2v-19.1l-5.5-3.2-5.5-3.2z"/>
      <path stroke-width=".8" d="M34.2 214v6.3l-5.5 3.2-5.6 3.2v12.7l-5.5 3.2v-19.1l5.5-3.2 5.6-3.2z"/>
      <path stroke-width=".8" d="M1 214l5.6-3.2 5.5 3.1 5.5 3.2 5.5-3.2 5.5-3.1 5.6 3.2-5.5 3.1-5.6 3.2-5.5 3.2-5.5-3.2-5.5-3.2z"/>
    </g>
    <path fill="none" stroke-width="1.3" d="M1 214l5.6-3.2 11 6.3 11-6.3 5.6 3.2v6.3l-11 6.4v12.7l-5.6 3.2-5.5-3.2v-12.7l-11-6.4z"/>
  </g>
  <g stroke="#000">
    <g fill="#888" stroke-linecap="round" stroke-linejoin="round" paint-order="markers fill stroke">
      <path stroke-width=".7937399999999999" d="M1 10.4v6.3L6.7 20l5.5 3.2v12.7l5.5 3.2V19.9l-5.5-3.2-5.5-3.2z"/>
      <path stroke-width=".8" d="M34.2 10.4v6.3L28.7 20 23 23.1v12.7L17.6 39V19.9l5.5-3.2 5.6-3.2z"/>
      <path stroke-width=".8" d="M1 10.4l5.6-3.2 5.5 3.2 5.5 3.1 5.5-3.1 5.5-3.2 5.6 3.2-5.5 3.1-5.6 3.2-5.5 3.2-5.5-3.2-5.5-3.2z"/>
    </g>
    <path fill="none" stroke-width="1.3" d="M1 10.4l5.6-3.2 11 6.3 11-6.3 5.6 3.2v6.3l-11 6.4v12.7L17.5 39l-5.5-3.2V23.1l-11-6.4z"/>
  </g>
  <g stroke="#000">
    <g fill="#888" stroke-linecap="round" stroke-linejoin="round" paint-order="markers fill stroke">
      <path stroke-width=".7937399999999999" d="M1-15.1v6.4l5.6 3.2 5.5 3.1v12.8l5.5 3.1v-19l-5.5-3.2L6.6-12z"/>
      <path stroke-width=".8" d="M34.2-15.1v6.4l-5.5 3.2L23-2.4v12.8l-5.5 3.1v-19l5.5-3.2 5.6-3.2z"/>
      <path stroke-width=".8" d="M1-15.1l5.6-3.2 5.5 3.2 5.5 3.2 5.5-3.2 5.5-3.2 5.6 3.2-5.5 3.2L23-8.7l-5.5 3.2-5.5-3.2L6.6-12z"/>
    </g>
    <path fill="none" stroke-width="1.3" d="M1-15.1l5.6-3.2 11 6.4 11-6.4 5.6 3.2v6.4l-11 6.3v12.8l-5.6 3.1-5.5-3.1V-2.4l-11-6.3z"/>
  </g>
  <g stroke="#000">
    <g fill="#888" stroke-linecap="round" stroke-linejoin="round" paint-order="markers fill stroke">
      <path stroke-width=".7937399999999999" d="M23.1 23v6.4l5.5 3.2 5.6 3.2v12.7l5.5 3.2V32.6l-5.5-3.2-5.6-3.1z"/>
      <path stroke-width=".8" d="M56.2 23v6.4l-5.5 3.2-5.5 3.2v12.7l-5.5 3.2V32.6l5.5-3.2 5.5-3.1z"/>
      <path stroke-width=".8" d="M23.1 23l5.5-3.1 5.6 3.2 5.5 3.2 5.5-3.2 5.5-3.2 5.5 3.2-5.5 3.2-5.5 3.1-5.5 3.2-5.5-3.2-5.6-3.1z"/>
    </g>
    <path fill="none" stroke-width="1.3" d="M23.1 23l5.5-3.1 11 6.4 11-6.4 5.6 3.2v6.3l-11 6.4v12.7l-5.5 3.2-5.5-3.2V35.8l-11-6.3z"/>
  </g>
  <g stroke="#000">
    <g fill="#888" stroke-linecap="round" stroke-linejoin="round" paint-order="markers fill stroke">
      <path stroke-width=".7937399999999999" d="M23.1 48.5V55l5.5 3.2 5.6 3.2V74l5.5 3.2V58l-5.5-3.2-5.6-3.2z"/>
      <path stroke-width=".8" d="M56.2 48.5V55L50.7 58l-5.5 3.2V74l-5.5 3.2V58l5.5-3.2 5.5-3.2z"/>
      <path stroke-width=".8" d="M23.1 48.5l5.5-3.2 5.6 3.2 5.5 3.2 5.5-3.2 5.5-3.1 5.5 3.1-5.5 3.2-5.5 3.2-5.5 3.2-5.5-3.2-5.6-3.2z"/>
    </g>
    <path fill="none" stroke-width="1.3" d="M23.1 48.5l5.5-3.2 11 6.4 11-6.3 5.6 3.1V55l-11 6.4V74l-5.5 3.2-5.5-3.2V61.3l-11-6.4z"/>
  </g>
  <g stroke="#000">
    <g fill="#888" stroke-linecap="round" stroke-linejoin="round" paint-order="markers fill stroke">
      <path stroke-width=".7937399999999999" d="M23.1 74v6.3l5.5 3.2 5.6 3.2v12.7l5.5 3.2V83.5l-5.5-3.2-5.6-3.1z"/>
      <path stroke-width=".8" d="M56.2 74v6.3l-5.5 3.2-5.5 3.2v12.7l-5.5 3.2V83.5l5.5-3.2 5.5-3.1z"/>
      <path stroke-width=".8" d="M23.1 74l5.5-3.2 5.6 3.2 5.5 3.2 5.5-3.2 5.5-3.2 5.5 3.2-5.5 3.2-5.5 3.1-5.5 3.2-5.5-3.2-5.6-3.1z"/>
    </g>
    <path fill="none" stroke-width="1.3" d="M23.1 74l5.5-3.2 11 6.4 11-6.4 5.6 3.2v6.3l-11 6.4v12.7l-5.5 3.2-5.5-3.2V86.7l-11-6.3z"/>
  </g>
  <g stroke="#000">
    <g fill="#888" stroke-linecap="round" stroke-linejoin="round" paint-order="markers fill stroke">
      <path stroke-width=".7937399999999999" d="M23.1 99.4v6.4l5.5 3.2 5.6 3.2v12.7l5.5 3.2V109l-5.5-3.2-5.6-3.2z"/>
      <path stroke-width=".8" d="M56.2 99.4v6.4l-5.5 3.2-5.5 3.2v12.7l-5.5 3.2V109l5.5-3.2 5.5-3.2z"/>
      <path stroke-width=".8" d="M23.1 99.4l5.5-3.2 5.6 3.2 5.5 3.2 5.5-3.2 5.5-3.1 5.5 3.1-5.5 3.2-5.5 3.2-5.5 3.2-5.5-3.2-5.6-3.2z"/>
    </g>
    <path fill="none" stroke-width="1.3" d="M23.1 99.4l5.5-3.2 11 6.4 11-6.3 5.6 3.1v6.4l-11 6.4v12.7l-5.5 3.2-5.5-3.2v-12.7l-11-6.4z"/>
  </g>
  <g stroke="#000">
    <g fill="#888" stroke-linecap="round" stroke-linejoin="round" paint-order="markers fill stroke">
      <path stroke-width=".7937399999999999" d="M23.1 124.9v6.3l5.5 3.2 5.6 3.2v12.7l5.5 3.2v-19.1l-5.5-3.2-5.6-3.1z"/>
      <path stroke-width=".8" d="M56.2 124.9v6.3l-5.5 3.2-5.5 3.2v12.7l-5.5 3.2v-19.1l5.5-3.2 5.5-3.1z"/>
      <path stroke-width=".8" d="M23.1 124.9l5.5-3.2 5.6 3.2 5.5 3.2 5.5-3.2 5.5-3.2 5.5 3.2-5.5 3.2-5.5 3.1-5.5 3.2-5.5-3.2-5.6-3.1z"/>
    </g>
    <path fill="none" stroke-width="1.3" d="M23.1 124.9l5.5-3.2 11 6.4 11-6.4 5.6 3.2v6.3l-11 6.4v12.7l-5.5 3.2-5.5-3.2v-12.7l-11-6.3z"/>
  </g>
  <g stroke="#000">
    <g fill="#888" stroke-linecap="round" stroke-linejoin="round" paint-order="markers fill stroke">
      <path stroke-width=".7937399999999999" d="M23.1 150.3v6.4l5.5 3.2 5.6 3.2v12.7l5.5 3.2v-19.1l-5.5-3.2-5.6-3.2z"/>
      <path stroke-width=".8" d="M56.2 150.3v6.4l-5.5 3.2-5.5 3.2v12.7l-5.5 3.2v-19.1l5.5-3.2 5.5-3.2z"/>
      <path stroke-width=".8" d="M23.1 150.3l5.5-3.2 5.6 3.2 5.5 3.2 5.5-3.2 5.5-3.2 5.5 3.2-5.5 3.2-5.5 3.2-5.5 3.2-5.5-3.2-5.6-3.2z"/>
    </g>
    <path fill="none" stroke-width="1.3" d="M23.1 150.3l5.5-3.2 11 6.4 11-6.4 5.6 3.2v6.4l-11 6.4v12.7l-5.5 3.2-5.5-3.2V163l-11-6.4z"/>
  </g>
  <g stroke="#000">
    <g fill="#888" stroke-linecap="round" stroke-linejoin="round" paint-order="markers fill stroke">
      <path stroke-width=".7937399999999999" d="M23.1 175.8v6.3l5.5 3.2 5.6 3.2v12.7l5.5 3.2v-19.1l-5.5-3.2-5.6-3.1z"/>
      <path stroke-width=".8" d="M56.2 175.8v6.3l-5.5 3.2-5.5 3.2v12.7l-5.5 3.2v-19.1l5.5-3.2 5.5-3.1z"/>
      <path stroke-width=".8" d="M23.1 175.8l5.5-3.2 5.6 3.2 5.5 3.2 5.5-3.2 5.5-3.2 5.5 3.2-5.5 3.2-5.5 3.1-5.5 3.2-5.5-3.2-5.6-3.1z"/>
    </g>
    <path fill="none" stroke-width="1.3" d="M23.1 175.8l5.5-3.2 11 6.4 11-6.4 5.6 3.2v6.3l-11 6.4v12.7l-5.5 3.2-5.5-3.2v-12.7l-11-6.3z"/>
  </g>
  <g stroke="#000">
    <g fill="#888" stroke-linecap="round" stroke-linejoin="round" paint-order="markers fill stroke">
      <path stroke-width=".7937399999999999" d="M23.1 201.2v6.4l5.5 3.2 5.6 3.2v12.7l5.5 3.2v-19.1l-5.5-3.2-5.6-3.2z"/>
      <path stroke-width=".8" d="M56.2 201.2v6.4l-5.5 3.2-5.5 3.2v12.7l-5.5 3.2v-19.1l5.5-3.2 5.5-3.2z"/>
      <path stroke-width=".8" d="M23.1 201.2l5.5-3.2 5.6 3.2 5.5 3.2 5.5-3.2 5.5-3.2 5.5 3.2-5.5 3.2-5.5 3.2-5.5 3.2-5.5-3.2-5.6-3.2z"/>
    </g>
    <path fill="none" stroke-width="1.3" d="M23.1 201.2l5.5-3.2 11 6.4 11-6.4 5.6 3.2v6.4l-11 6.4v12.7l-5.5 3.2-5.5-3.2V214l-11-6.4z"/>
  </g>
  <g stroke="#000">
    <g fill="#888" stroke-linecap="round" stroke-linejoin="round" paint-order="markers fill stroke">
      <path stroke-width=".7937399999999999" d="M23.1-2.4V4l5.5 3.2 5.6 3.2V23l5.5 3.2V7.2L34.2 4 28.6.8z"/>
      <path stroke-width=".8" d="M56.2-2.4V4l-5.5 3.2-5.5 3.2V23l-5.5 3.2V7.2L45.2 4 50.7.8z"/>
      <path stroke-width=".8" d="M23.1-2.4l5.5-3.2 5.6 3.2L39.7.8l5.5-3.2 5.5-3.1 5.5 3.1L50.7.8 45.2 4l-5.5 3.2L34.2 4 28.6.8z"/>
    </g>
    <path fill="none" stroke-width="1.3" d="M23.1-2.4l5.5-3.2 11 6.4 11-6.3 5.6 3.1V4l-11 6.4V23l-5.5 3.2-5.5-3.2V10.4L23.2 4z"/>
  </g>
  <g stroke="#000">
    <g fill="#888" stroke-linecap="round" stroke-linejoin="round" paint-order="markers fill stroke">
      <path stroke-width=".7937399999999999" d="M23.1-27.8v6.3l5.5 3.2 5.6 3.2v12.7L39.7.8v-19.1l-5.5-3.2-5.6-3.1z"/>
      <path stroke-width=".8" d="M56.2-27.8v6.3l-5.5 3.2-5.5 3.2v12.7L39.7.8v-19.1l5.5-3.2 5.5-3.1z"/>
      <path stroke-width=".8" d="M23.1-27.8l5.5-3.2 5.6 3.2 5.5 3.2 5.5-3.2 5.5-3.2 5.5 3.2-5.5 3.2-5.5 3.1-5.5 3.2-5.5-3.2-5.6-3.1z"/>
    </g>
    <path fill="none" stroke-width="1.3" d="M23.1-27.8l5.5-3.2 11 6.4 11-6.4 5.6 3.2v6.3l-11 6.4v12.7L39.7.8l-5.5-3.2V-15l-11-6.3z"/>
  </g>
  <g stroke="#000">
    <g fill="#888" stroke-linecap="round" stroke-linejoin="round" paint-order="markers fill stroke">
      <path stroke-width=".7937399999999999" d="M45.2 35.8v6.4l5.5 3.2 5.5 3.1v12.8l5.5 3.1v-19l-5.5-3.2-5.5-3.2z"/>
      <path stroke-width=".8" d="M78.3 35.8v6.4l-5.5 3.2-5.6 3.1v12.8l-5.5 3.1v-19l5.5-3.2 5.6-3.2z"/>
      <path stroke-width=".8" d="M45.2 35.8l5.5-3.2 5.5 3.2 5.5 3.2 5.5-3.2 5.5-3.2 5.6 3.2-5.5 3.2-5.6 3.2-5.5 3.2-5.5-3.2-5.5-3.2z"/>
    </g>
    <path fill="none" stroke-width="1.3" d="M45.2 35.8l5.5-3.2 11 6.4 11-6.4 5.6 3.2v6.4l-11 6.3v12.8l-5.6 3.1-5.5-3.1V48.5l-11-6.3z"/>
  </g>
  <g stroke="#000">
    <g fill="#888" stroke-linecap="round" stroke-linejoin="round" paint-order="markers fill stroke">
      <path stroke-width=".7937399999999999" d="M45.2 61.3v6.3l5.5 3.2 5.5 3.2v12.7l5.5 3.2V70.8l-5.5-3.2-5.5-3.2z"/>
      <path stroke-width=".8" d="M78.3 61.3v6.3l-5.5 3.2-5.6 3.2v12.7L61.7 90V70.8l5.5-3.2 5.6-3.2z"/>
      <path stroke-width=".8" d="M45.2 61.3l5.5-3.2 5.5 3.2 5.5 3.1 5.5-3.1 5.5-3.2 5.6 3.2-5.5 3.1-5.6 3.2-5.5 3.2-5.5-3.2-5.5-3.2z"/>
    </g>
    <path fill="none" stroke-width="1.3" d="M45.2 61.3l5.5-3.2 11 6.3 11-6.3 5.6 3.2v6.3l-11 6.4v12.7L61.6 90l-5.5-3.2V74l-11-6.3z"/>
  </g>
  <g stroke="#000">
    <g fill="#888" stroke-linecap="round" stroke-linejoin="round" paint-order="markers fill stroke">
      <path stroke-width=".7937399999999999" d="M45.2 86.7v6.4l5.5 3.2 5.5 3.1v12.8l5.5 3.1v-19L56.2 93l-5.5-3.2z"/>
      <path stroke-width=".8" d="M78.3 86.7v6.4l-5.5 3.2-5.6 3.1v12.8l-5.5 3.1v-19l5.5-3.2 5.6-3.2z"/>
      <path stroke-width=".8" d="M45.2 86.7l5.5-3.2 5.5 3.2 5.5 3.2 5.5-3.2 5.5-3.2 5.6 3.2-5.5 3.2-5.6 3.2-5.5 3.2-5.5-3.2-5.5-3.2z"/>
    </g>
    <path fill="none" stroke-width="1.3" d="M45.2 86.7l5.5-3.2 11 6.4 11-6.4 5.6 3.2v6.4l-11 6.3v12.8l-5.6 3.1-5.5-3.1V99.4l-11-6.3z"/>
  </g>
  <g stroke="#000">
    <g fill="#888" stroke-linecap="round" stroke-linejoin="round" paint-order="markers fill stroke">
      <path stroke-width=".7937399999999999" d="M45.2 112.2v6.3l5.5 3.2 5.5 3.2v12.7l5.5 3.2v-19.1l-5.5-3.2-5.5-3.2z"/>
      <path stroke-width=".8" d="M78.3 112.2v6.3l-5.5 3.2-5.6 3.2v12.7l-5.5 3.2v-19.1l5.5-3.2 5.6-3.2z"/>
      <path stroke-width=".8" d="M45.2 112.2l5.5-3.2 5.5 3.2 5.5 3.1 5.5-3.1 5.5-3.2 5.6 3.2-5.5 3.1-5.6 3.2-5.5 3.2-5.5-3.2-5.5-3.2z"/>
    </g>
    <path fill="none" stroke-width="1.3" d="M45.2 112.2l5.5-3.2 11 6.3 11-6.3 5.6 3.2v6.3l-11 6.4v12.7l-5.6 3.2-5.5-3.2V125l-11-6.4z"/>
  </g>
  <g stroke="#000">
    <g fill="#888" stroke-linecap="round" stroke-linejoin="round" paint-order="markers fill stroke">
      <path stroke-width=".7937399999999999" d="M45.2 137.6v6.4l5.5 3.2 5.5 3.1v12.8l5.5 3.1v-19l-5.5-3.2-5.5-3.2z"/>
      <path stroke-width=".8" d="M78.3 137.6v6.4l-5.5 3.2-5.6 3.1v12.8l-5.5 3.1v-19l5.5-3.2 5.6-3.2z"/>
      <path stroke-width=".8" d="M45.2 137.6l5.5-3.2 5.5 3.2 5.5 3.2 5.5-3.2 5.5-3.2 5.6 3.2-5.5 3.2-5.6 3.2-5.5 3.2-5.5-3.2-5.5-3.2z"/>
    </g>
    <path fill="none" stroke-width="1.3" d="M45.2 137.6l5.5-3.2 11 6.4 11-6.4 5.6 3.2v6.4l-11 6.3v12.8l-5.6 3.1-5.5-3.1v-12.8l-11-6.3z"/>
  </g>
  <g stroke="#000">
    <g fill="#888" stroke-linecap="round" stroke-linejoin="round" paint-order="markers fill stroke">
      <path stroke-width=".7937399999999999" d="M45.2 163v6.4l5.5 3.2 5.5 3.2v12.7l5.5 3.2v-19.1l-5.5-3.2-5.5-3.2z"/>
      <path stroke-width=".8" d="M78.3 163v6.4l-5.5 3.2-5.6 3.2v12.7l-5.5 3.2v-19.1l5.5-3.2 5.6-3.2z"/>
      <path stroke-width=".8" d="M45.2 163l5.5-3.1 5.5 3.2 5.5 3.1 5.5-3.1 5.5-3.2 5.6 3.2-5.5 3.1-5.6 3.2-5.5 3.2-5.5-3.2-5.5-3.2z"/>
    </g>
    <path fill="none" stroke-width="1.3" d="M45.2 163l5.5-3.1 11 6.3 11-6.3 5.6 3.2v6.3l-11 6.4v12.7l-5.6 3.2-5.5-3.2v-12.7l-11-6.4z"/>
  </g>
  <g stroke="#000">
    <g fill="#888" stroke-linecap="round" stroke-linejoin="round" paint-order="markers fill stroke">
      <path stroke-width=".7937399999999999" d="M45.2 188.5v6.4l5.5 3.2 5.5 3.1V214l5.5 3.1v-19l-5.5-3.2-5.5-3.2z"/>
      <path stroke-width=".8" d="M78.3 188.5v6.4l-5.5 3.2-5.6 3.1V214l-5.5 3.1v-19l5.5-3.2 5.6-3.2z"/>
      <path stroke-width=".8" d="M45.2 188.5l5.5-3.2 5.5 3.2 5.5 3.2 5.5-3.2 5.5-3.2 5.6 3.2-5.5 3.2-5.6 3.2-5.5 3.2-5.5-3.2-5.5-3.2z"/>
    </g>
    <path fill="none" stroke-width="1.3" d="M45.2 188.5l5.5-3.2 11 6.4 11-6.4 5.6 3.2v6.4l-11 6.3V214l-5.6 3.1-5.5-3.1v-12.8l-11-6.3z"/>
  </g>
  <g stroke="#000">
    <g fill="#888" stroke-linecap="round" stroke-linejoin="round" paint-order="markers fill stroke">
      <path stroke-width=".7937399999999999" d="M45.2 214v6.3l5.5 3.2 5.5 3.2v12.7l5.5 3.2v-19.1l-5.5-3.2-5.5-3.2z"/>
      <path stroke-width=".8" d="M78.3 214v6.3l-5.5 3.2-5.6 3.2v12.7l-5.5 3.2v-19.1l5.5-3.2 5.6-3.2z"/>
      <path stroke-width=".8" d="M45.2 214l5.5-3.2 5.5 3.2 5.5 3.1 5.5-3.1 5.5-3.2 5.6 3.2-5.5 3.1-5.6 3.2-5.5 3.2-5.5-3.2-5.5-3.2z"/>
    </g>
    <path fill="none" stroke-width="1.3" d="M45.2 214l5.5-3.2 11 6.3 11-6.3 5.6 3.2v6.3l-11 6.4v12.7l-5.6 3.2-5.5-3.2v-12.7l-11-6.4z"/>
  </g>
  <g stroke="#000">
    <g fill="#888" stroke-linecap="round" stroke-linejoin="round" paint-order="markers fill stroke">
      <path stroke-width=".7937399999999999" d="M45.2 10.4v6.3l5.5 3.2 5.5 3.2v12.7l5.5 3.2V19.9l-5.5-3.2-5.5-3.2z"/>
      <path stroke-width=".8" d="M78.3 10.4v6.3L72.8 20l-5.6 3.2v12.7L61.7 39V19.9l5.5-3.2 5.6-3.2z"/>
      <path stroke-width=".8" d="M45.2 10.4l5.5-3.2 5.5 3.2 5.5 3.1 5.5-3.1 5.5-3.2 5.6 3.2-5.5 3.1-5.6 3.2-5.5 3.2-5.5-3.2-5.5-3.2z"/>
    </g>
    <path fill="none" stroke-width="1.3" d="M45.2 10.4l5.5-3.2 11 6.3 11-6.3 5.6 3.2v6.3l-11 6.4v12.7L61.6 39l-5.5-3.2V23.1l-11-6.3z"/>
  </g>
  <g stroke="#000">
    <g fill="#888" stroke-linecap="round" stroke-linejoin="round" paint-order="markers fill stroke">
      <path stroke-width=".7937399999999999" d="M45.2-15v6.3l5.5 3.2 5.5 3.1v12.8l5.5 3.1v-19l-5.5-3.2-5.5-3.2z"/>
      <path stroke-width=".8" d="M78.3-15v6.3l-5.5 3.2-5.6 3.1v12.8l-5.5 3.1v-19l5.5-3.2 5.6-3.2z"/>
      <path stroke-width=".8" d="M45.2-15l5.5-3.3 5.5 3.2 5.5 3.2 5.5-3.2 5.5-3.2 5.6 3.2-5.5 3.2-5.6 3.2-5.5 3.2-5.5-3.2-5.5-3.2z"/>
    </g>
    <path fill="none" stroke-width="1.3" d="M45.2-15l5.5-3.3 11 6.4 11-6.4 5.6 3.2v6.4l-11 6.3v12.8l-5.6 3.1-5.5-3.1V-2.4l-11-6.3z"/>
  </g>
  <g stroke="#000">
    <g fill="#888" stroke-linecap="round" stroke-linejoin="round" paint-order="markers fill stroke">
      <path stroke-width=".7937399999999999" d="M67.2 23v6.5l5.6 3.1 5.5 3.2v12.7l5.5 3.2V32.6l-5.5-3.1-5.5-3.2z"/>
      <path stroke-width=".8" d="M100.3 23v6.5l-5.5 3.1-5.5 3.2v12.7l-5.5 3.2V32.6l5.5-3.1 5.5-3.2z"/>
      <path stroke-width=".8" d="M67.2 23l5.6-3 5.5 3 5.5 3.3 5.5-3.2 5.5-3.2 5.5 3.2-5.5 3.2-5.5 3.2-5.5 3.1-5.5-3.1-5.5-3.2z"/>
    </g>
    <path fill="none" stroke-width="1.3" d="M67.2 23l5.6-3 11 6.3 11-6.4 5.5 3.2v6.4l-11 6.3v12.7l-5.5 3.2-5.5-3.2V35.8l-11-6.3z"/>
  </g>
  <g stroke="#000">
    <g fill="#888" stroke-linecap="round" stroke-linejoin="round" paint-order="markers fill stroke">
      <path stroke-width=".7937399999999999" d="M67.2 48.5V55l5.6 3.2 5.5 3.2V74l5.5 3.2V58l-5.5-3.2-5.5-3.2z"/>
      <path stroke-width=".8" d="M100.3 48.5V55l-5.5 3.2-5.5 3.2V74l-5.5 3.2V58l5.5-3.2 5.5-3.2z"/>
      <path stroke-width=".8" d="M67.2 48.5l5.6-3.1 5.5 3.1 5.5 3.2 5.5-3.2 5.5-3.1 5.5 3.2-5.5 3.1-5.5 3.2-5.5 3.2-5.5-3.2-5.5-3.2z"/>
    </g>
    <path fill="none" stroke-width="1.3" d="M67.2 48.5l5.6-3.1 11 6.3 11-6.3 5.5 3.2v6.3l-11 6.4V74l-5.5 3.2-5.5-3.2V61.3l-11-6.4z"/>
  </g>
  <g stroke="#000">
    <g fill="#888" stroke-linecap="round" stroke-linejoin="round" paint-order="markers fill stroke">
      <path stroke-width=".7937399999999999" d="M67.2 74v6.4l5.6 3.1 5.5 3.2v12.7l5.5 3.2V83.5l-5.5-3.1-5.5-3.2z"/>
      <path stroke-width=".8" d="M100.3 74v6.4l-5.5 3.1-5.5 3.2v12.7l-5.5 3.2V83.5l5.5-3.1 5.5-3.2z"/>
      <path stroke-width=".8" d="M67.2 74l5.6-3.2 5.5 3.2 5.5 3.2 5.5-3.2 5.5-3.2 5.5 3.2-5.5 3.2-5.5 3.2-5.5 3.1-5.5-3.1-5.5-3.2z"/>
    </g>
    <path fill="none" stroke-width="1.3" d="M67.2 74l5.6-3.2 11 6.4 11-6.4 5.5 3.2v6.4l-11 6.3v12.7l-5.5 3.2-5.5-3.2V86.7l-11-6.3z"/>
  </g>
  <g stroke="#000">
    <g fill="#888" stroke-linecap="round" stroke-linejoin="round" paint-order="markers fill stroke">
      <path stroke-width=".7937399999999999" d="M67.2 99.4v6.4l5.6 3.2 5.5 3.2v12.7l5.5 3.2V109l-5.5-3.2-5.5-3.2z"/>
      <path stroke-width=".8" d="M100.3 99.4v6.4l-5.5 3.2-5.5 3.2v12.7l-5.5 3.2V109l5.5-3.2 5.5-3.2z"/>
      <path stroke-width=".8" d="M67.2 99.4l5.6-3.1 5.5 3.1 5.5 3.2 5.5-3.2 5.5-3.1 5.5 3.2-5.5 3.1-5.5 3.2-5.5 3.2-5.5-3.2-5.5-3.2z"/>
    </g>
    <path fill="none" stroke-width="1.3" d="M67.2 99.4l5.6-3.1 11 6.3 11-6.3 5.5 3.2v6.3l-11 6.4v12.7l-5.5 3.2-5.5-3.2v-12.7l-11-6.4z"/>
  </g>
  <g stroke="#000">
    <g fill="#888" stroke-linecap="round" stroke-linejoin="round" paint-order="markers fill stroke">
      <path stroke-width=".7937399999999999" d="M67.2 124.9v6.4l5.6 3.1 5.5 3.2v12.7l5.5 3.2v-19.1l-5.5-3.1-5.5-3.2z"/>
      <path stroke-width=".8" d="M100.3 124.9v6.4l-5.5 3.1-5.5 3.2v12.7l-5.5 3.2v-19.1l5.5-3.1 5.5-3.2z"/>
      <path stroke-width=".8" d="M67.2 124.9l5.6-3.2 5.5 3.2 5.5 3.2 5.5-3.2 5.5-3.2 5.5 3.2-5.5 3.2-5.5 3.2-5.5 3.1-5.5-3.1-5.5-3.2z"/>
    </g>
    <path fill="none" stroke-width="1.3" d="M67.2 124.9l5.6-3.2 11 6.4 11-6.4 5.5 3.2v6.4l-11 6.3v12.7l-5.5 3.2-5.5-3.2v-12.7l-11-6.3z"/>
  </g>
  <g stroke="#000">
    <g fill="#888" stroke-linecap="round" stroke-linejoin="round" paint-order="markers fill stroke">
      <path stroke-width=".7937399999999999" d="M67.2 150.3v6.4l5.6 3.2 5.5 3.2v12.7l5.5 3.2v-19.1l-5.5-3.2-5.5-3.2z"/>
      <path stroke-width=".8" d="M100.3 150.3v6.4l-5.5 3.2-5.5 3.2v12.7l-5.5 3.2v-19.1l5.5-3.2 5.5-3.2z"/>
      <path stroke-width=".8" d="M67.2 150.3l5.6-3.1 5.5 3.1 5.5 3.2 5.5-3.2 5.5-3.1 5.5 3.1-5.5 3.2-5.5 3.2-5.5 3.2-5.5-3.2-5.5-3.2z"/>
    </g>
    <path fill="none" stroke-width="1.3" d="M67.2 150.3l5.6-3.1 11 6.3 11-6.3 5.5 3.1v6.4l-11 6.4v12.7l-5.5 3.2-5.5-3.2V163l-11-6.4z"/>
  </g>
  <g stroke="#000">
    <g fill="#888" stroke-linecap="round" stroke-linejoin="round" paint-order="markers fill stroke">
      <path stroke-width=".7937399999999999" d="M67.2 175.8v6.4l5.6 3.1 5.5 3.2v12.7l5.5 3.2v-19.1l-5.5-3.1-5.5-3.2z"/>
      <path stroke-width=".8" d="M100.3 175.8v6.4l-5.5 3.1-5.5 3.2v12.7l-5.5 3.2v-19.1l5.5-3.1 5.5-3.2z"/>
      <path stroke-width=".8" d="M67.2 175.8l5.6-3.2 5.5 3.2 5.5 3.2 5.5-3.2 5.5-3.2 5.5 3.2-5.5 3.2-5.5 3.2-5.5 3.1-5.5-3.1-5.5-3.2z"/>
    </g>
    <path fill="none" stroke-width="1.3" d="M67.2 175.8l5.6-3.2 11 6.4 11-6.4 5.5 3.2v6.4l-11 6.3v12.7l-5.5 3.2-5.5-3.2v-12.7l-11-6.3z"/>
  </g>
  <g stroke="#000">
    <g fill="#888" stroke-linecap="round" stroke-linejoin="round" paint-order="markers fill stroke">
      <path stroke-width=".7937399999999999" d="M67.2 201.2v6.4l5.6 3.2 5.5 3.2v12.7l5.5 3.2v-19.1l-5.5-3.2-5.5-3.2z"/>
      <path stroke-width=".8" d="M100.3 201.2v6.4l-5.5 3.2-5.5 3.2v12.7l-5.5 3.2v-19.1l5.5-3.2 5.5-3.2z"/>
      <path stroke-width=".8" d="M67.2 201.2l5.6-3.1 5.5 3.1 5.5 3.2 5.5-3.2 5.5-3.1 5.5 3.1-5.5 3.2-5.5 3.2-5.5 3.2-5.5-3.2-5.5-3.2z"/>
    </g>
    <path fill="none" stroke-width="1.3" d="M67.2 201.2l5.6-3.1 11 6.3 11-6.3 5.5 3.1v6.4l-11 6.4v12.7l-5.5 3.2-5.5-3.2V214l-11-6.4z"/>
  </g>
  <g stroke="#000">
    <g fill="#888" stroke-linecap="round" stroke-linejoin="round" paint-order="markers fill stroke">
      <path stroke-width=".7937399999999999" d="M67.2-2.4V4l5.6 3.2 5.5 3.2V23l5.5 3.2V7.2L78.3 4 72.8.8z"/>
      <path stroke-width=".8" d="M100.3-2.4V4l-5.5 3.2-5.5 3.2V23l-5.5 3.2V7.2L89.3 4 94.8.8z"/>
      <path stroke-width=".8" d="M67.2-2.4l5.6-3.1 5.5 3.1L83.8.8l5.5-3.2 5.5-3.1 5.5 3.2L94.8.8 89.3 4l-5.5 3.2L78.3 4 72.8.8z"/>
    </g>
    <path fill="none" stroke-width="1.3" d="M67.2-2.4l5.6-3.1 11 6.3 11-6.3 5.5 3.2V4l-11 6.4V23l-5.5 3.2-5.5-3.2V10.4L67.3 4z"/>
  </g>
  <g stroke="#000">
    <g fill="#888" stroke-linecap="round" stroke-linejoin="round" paint-order="markers fill stroke">
      <path stroke-width=".7937399999999999" d="M67.2-27.8v6.4l5.6 3.1 5.5 3.2v12.7L83.8.8v-19.1l-5.5-3.1-5.5-3.2z"/>
      <path stroke-width=".8" d="M100.3-27.8v6.4l-5.5 3.1-5.5 3.2v12.7L83.8.8v-19.1l5.5-3.1 5.5-3.2z"/>
      <path stroke-width=".8" d="M67.2-27.8l5.6-3.2 5.5 3.2 5.5 3.2 5.5-3.2 5.5-3.2 5.5 3.2-5.5 3.2-5.5 3.2-5.5 3.1-5.5-3.1-5.5-3.2z"/>
    </g>
    <path fill="none" stroke-width="1.3" d="M67.2-27.8l5.6-3.2 11 6.4 11-6.4 5.5 3.2v6.4l-11 6.3v12.7L83.8.8l-5.5-3.2V-15l-11-6.3z"/>
  </g>
  <g stroke="#000">
    <g fill="#888" stroke-linecap="round" stroke-linejoin="round" paint-order="markers fill stroke">
      <path stroke-width=".7937399999999999" d="M89.3 35.8v6.4l5.5 3.2 5.5 3.2v12.7l5.5 3.2V45.4l-5.5-3.2-5.5-3.2z"/>
      <path stroke-width=".8" d="M122.4 35.8v6.4l-5.5 3.2-5.6 3.2v12.7l-5.5 3.2V45.4l5.5-3.2L117 39z"/>
      <path stroke-width=".8" d="M89.3 35.8l5.5-3.2 5.5 3.2 5.5 3.2 5.5-3.2 5.5-3.1 5.6 3.1-5.5 3.2-5.6 3.2-5.5 3.2-5.5-3.2-5.5-3.2z"/>
    </g>
    <path fill="none" stroke-width="1.3" d="M89.3 35.8l5.5-3.2 11 6.4 11-6.3 5.6 3.1v6.4l-11 6.4v12.7l-5.6 3.2-5.5-3.2V48.6l-11-6.4z"/>
  </g>
  <g stroke="#000">
    <g fill="#888" stroke-linecap="round" stroke-linejoin="round" paint-order="markers fill stroke">
      <path stroke-width=".7937399999999999" d="M89.3 61.3v6.3l5.5 3.2 5.5 3.2v12.7l5.5 3.2V70.8l-5.5-3.2-5.5-3.1z"/>
      <path stroke-width=".8" d="M122.4 61.3v6.3l-5.5 3.2-5.6 3.2v12.7l-5.5 3.2V70.8l5.5-3.2 5.6-3.1z"/>
      <path stroke-width=".8" d="M89.3 61.3l5.5-3.2 5.5 3.2 5.5 3.2 5.5-3.2 5.5-3.2 5.6 3.2-5.5 3.2-5.6 3.1-5.5 3.2-5.5-3.2-5.5-3.1z"/>
    </g>
    <path fill="none" stroke-width="1.3" d="M89.3 61.3l5.5-3.2 11 6.4 11-6.4 5.6 3.2v6.3l-11 6.4v12.7l-5.6 3.2-5.5-3.2V74l-11-6.3z"/>
  </g>
  <g stroke="#000">
    <g fill="#888" stroke-linecap="round" stroke-linejoin="round" paint-order="markers fill stroke">
      <path stroke-width=".7937399999999999" d="M89.3 86.7v6.4l5.5 3.2 5.5 3.2v12.7l5.5 3.2V96.3l-5.5-3.2-5.5-3.2z"/>
      <path stroke-width=".8" d="M122.4 86.7v6.4l-5.5 3.2-5.6 3.2v12.7l-5.5 3.2V96.3l5.5-3.2 5.6-3.2z"/>
      <path stroke-width=".8" d="M89.3 86.7l5.5-3.2 5.5 3.2 5.5 3.2 5.5-3.2 5.5-3.1 5.6 3.1-5.5 3.2-5.6 3.2-5.5 3.2-5.5-3.2-5.5-3.2z"/>
    </g>
    <path fill="none" stroke-width="1.3" d="M89.3 86.7l5.5-3.2 11 6.4 11-6.3 5.6 3.1v6.4l-11 6.4v12.7l-5.6 3.2-5.5-3.2V99.5l-11-6.4z"/>
  </g>
  <g stroke="#000">
    <g fill="#888" stroke-linecap="round" stroke-linejoin="round" paint-order="markers fill stroke">
      <path stroke-width=".7937399999999999" d="M89.3 112.2v6.3l5.5 3.2 5.5 3.2v12.7l5.5 3.2v-19.1l-5.5-3.2-5.5-3.1z"/>
      <path stroke-width=".8" d="M122.4 112.2v6.3l-5.5 3.2-5.6 3.2v12.7l-5.5 3.2v-19.1l5.5-3.2 5.6-3.1z"/>
      <path stroke-width=".8" d="M89.3 112.2l5.5-3.2 5.5 3.2 5.5 3.2 5.5-3.2 5.5-3.2 5.6 3.2-5.5 3.2-5.6 3.1-5.5 3.2-5.5-3.2-5.5-3.1z"/>
    </g>
    <path fill="none" stroke-width="1.3" d="M89.3 112.2l5.5-3.2 11 6.4 11-6.4 5.6 3.2v6.3l-11 6.4v12.7l-5.6 3.2-5.5-3.2V125l-11-6.3z"/>
  </g>
  <g stroke="#000">
    <g fill="#888" stroke-linecap="round" stroke-linejoin="round" paint-order="markers fill stroke">
      <path stroke-width=".7937399999999999" d="M89.3 137.6v6.4l5.5 3.2 5.5 3.2V163l5.5 3.2v-19.1l-5.5-3.2-5.5-3.2z"/>
      <path stroke-width=".8" d="M122.4 137.6v6.4l-5.5 3.2-5.6 3.2V163l-5.5 3.2v-19.1l5.5-3.2 5.6-3.2z"/>
      <path stroke-width=".8" d="M89.3 137.6l5.5-3.2 5.5 3.2 5.5 3.2 5.5-3.2 5.5-3.2 5.6 3.2-5.5 3.2-5.6 3.2-5.5 3.2-5.5-3.2-5.5-3.2z"/>
    </g>
    <path fill="none" stroke-width="1.3" d="M89.3 137.6l5.5-3.2 11 6.4 11-6.4 5.6 3.2v6.4l-11 6.4V163l-5.6 3.2-5.5-3.2v-12.7l-11-6.4z"/>
  </g>
  <g stroke="#000">
    <g fill="#888" stroke-linecap="round" stroke-linejoin="round" paint-order="markers fill stroke">
      <path stroke-width=".7937399999999999" d="M89.3 163v6.4l5.5 3.2 5.5 3.2v12.7l5.5 3.2v-19.1l-5.5-3.2-5.5-3.1z"/>
      <path stroke-width=".8" d="M122.4 163v6.4l-5.5 3.2-5.6 3.2v12.7l-5.5 3.2v-19.1l5.5-3.2 5.6-3.1z"/>
      <path stroke-width=".8" d="M89.3 163l5.5-3.1 5.5 3.2 5.5 3.2 5.5-3.2 5.5-3.2 5.6 3.2-5.5 3.2-5.6 3.1-5.5 3.2-5.5-3.2-5.5-3.1z"/>
    </g>
    <path fill="none" stroke-width="1.3" d="M89.3 163l5.5-3.1 11 6.4 11-6.4 5.6 3.2v6.3l-11 6.4v12.7l-5.6 3.2-5.5-3.2v-12.7l-11-6.3z"/>
  </g>
  <g stroke="#000">
    <g fill="#888" stroke-linecap="round" stroke-linejoin="round" paint-order="markers fill stroke">
      <path stroke-width=".7937399999999999" d="M89.3 188.5v6.4l5.5 3.2 5.5 3.2V214l5.5 3.2V198l-5.5-3.2-5.5-3.2z"/>
      <path stroke-width=".8" d="M122.4 188.5v6.4l-5.5 3.2-5.6 3.2V214l-5.5 3.2V198l5.5-3.2 5.6-3.2z"/>
      <path stroke-width=".8" d="M89.3 188.5l5.5-3.2 5.5 3.2 5.5 3.2 5.5-3.2 5.5-3.2 5.6 3.2-5.5 3.2-5.6 3.2-5.5 3.2-5.5-3.2-5.5-3.2z"/>
    </g>
    <path fill="none" stroke-width="1.3" d="M89.3 188.5l5.5-3.2 11 6.4 11-6.4 5.6 3.2v6.4l-11 6.4V214l-5.6 3.2-5.5-3.2v-12.7l-11-6.4z"/>
  </g>
  <g stroke="#000">
    <g fill="#888" stroke-linecap="round" stroke-linejoin="round" paint-order="markers fill stroke">
      <path stroke-width=".7937399999999999" d="M89.3 214v6.3l5.5 3.2 5.5 3.2v12.7l5.5 3.2v-19.1l-5.5-3.2-5.5-3.1z"/>
      <path stroke-width=".8" d="M122.4 214v6.3l-5.5 3.2-5.6 3.2v12.7l-5.5 3.2v-19.1l5.5-3.2 5.6-3.1z"/>
      <path stroke-width=".8" d="M89.3 214l5.5-3.2 5.5 3.2 5.5 3.2 5.5-3.2 5.5-3.2 5.6 3.2-5.5 3.2-5.6 3.1-5.5 3.2-5.5-3.2-5.5-3.1z"/>
    </g>
    <path fill="none" stroke-width="1.3" d="M89.3 214l5.5-3.2 11 6.4 11-6.4 5.6 3.2v6.3l-11 6.4v12.7l-5.6 3.2-5.5-3.2v-12.7l-11-6.3z"/>
  </g>
  <g stroke="#000">
    <g fill="#888" stroke-linecap="round" stroke-linejoin="round" paint-order="markers fill stroke">
      <path stroke-width=".7937399999999999" d="M89.3 10.4v6.3l5.5 3.2 5.5 3.2v12.7l5.5 3.2V20l-5.5-3.2-5.5-3.1z"/>
      <path stroke-width=".8" d="M122.4 10.4v6.3l-5.5 3.2-5.6 3.2v12.7l-5.5 3.2V20l5.5-3.2 5.6-3.1z"/>
      <path stroke-width=".8" d="M89.3 10.4l5.5-3.2 5.5 3.2 5.5 3.2 5.6-3.2 5.4-3.2 5.6 3.2-5.5 3.2-5.6 3.1-5.5 3.2-5.5-3.2-5.5-3.1z"/>
    </g>
    <path fill="none" stroke-width="1.3" d="M89.3 10.4l5.5-3.2 11 6.4 11-6.4 5.6 3.2v6.3l-11 6.4v12.7l-5.6 3.2-5.5-3.2V23.1l-11-6.3z"/>
  </g>
  <g stroke="#000">
    <g fill="#888" stroke-linecap="round" stroke-linejoin="round" paint-order="markers fill stroke">
      <path stroke-width=".7937399999999999" d="M89.3-15v6.3l5.5 3.2 5.5 3.2v12.7l5.5 3.2V-5.5l-5.5-3.2-5.5-3.2z"/>
      <path stroke-width=".8" d="M122.4-15v6.3l-5.5 3.2-5.6 3.2v12.7l-5.5 3.2V-5.5l5.5-3.2L117-12z"/>
      <path stroke-width=".8" d="M89.3-15l5.5-3.3 5.5 3.2 5.5 3.2 5.6-3.2 5.4-3.1 5.6 3.1-5.5 3.2-5.5 3.2-5.6 3.2-5.5-3.2-5.5-3.2z"/>
    </g>
    <path fill="none" stroke-width="1.3" d="M89.3-15l5.5-3.3 11 6.4 11-6.3 5.6 3.1v6.4l-11 6.4v12.7l-5.6 3.2-5.5-3.2V-2.3l-11-6.4z"/>
  </g>
  <g stroke="#000">
    <g fill="#888" stroke-linecap="round" stroke-linejoin="round" paint-order="markers fill stroke">
      <path stroke-width=".7937399999999999" d="M111.3 23.2v6.3l5.6 3.2 5.5 3.2v12.7l5.5 3.2V32.7l-5.5-3.2-5.5-3.2z"/>
      <path stroke-width=".8" d="M144.4 23.2v6.3l-5.5 3.2-5.5 3.2v12.7l-5.5 3.2V32.7l5.5-3.2 5.5-3.2z"/>
      <path stroke-width=".8" d="M111.3 23.2L117 20l5.5 3.2 5.5 3.1 5.5-3.1 5.5-3.2 5.5 3.2-5.5 3.1-5.5 3.2-5.5 3.2-5.5-3.2-5.5-3.2z"/>
    </g>
    <path fill="none" stroke-width="1.3" d="M111.3 23.2L117 20l11 6.3 11-6.3 5.5 3.2v6.3l-11 6.4v12.7l-5.5 3.2-5.5-3.2V36l-11-6.3z"/>
  </g>
  <g stroke="#000">
    <g fill="#888" stroke-linecap="round" stroke-linejoin="round" paint-order="markers fill stroke">
      <path stroke-width=".7937399999999999" d="M111.3 48.6V55l5.6 3.2 5.5 3.1v12.8l5.5 3.1v-19l-5.5-3.2-5.5-3.2z"/>
      <path stroke-width=".8" d="M144.4 48.6V55l-5.5 3.2-5.5 3.1v12.8l-5.5 3.1v-19l5.5-3.2 5.5-3.2zM111.3 48.6l5.6-3.2 5.5 3.2 5.5 3.2 5.5-3.2 5.5-3.2 5.5 3.2-5.5 3.2-5.5 3.2-5.5 3.2-5.5-3.2-5.5-3.2z"/>
    </g>
    <path fill="none" stroke-width="1.3" d="M111.3 48.6l5.6-3.2 11 6.4 11-6.4 5.5 3.2V55l-11 6.3v12.8l-5.5 3.1-5.5-3.1V61.3l-11-6.3z"/>
  </g>
  <g stroke="#000">
    <g fill="#888" stroke-linecap="round" stroke-linejoin="round" paint-order="markers fill stroke">
      <path stroke-width=".7937399999999999" d="M111.3 74v6.4l5.6 3.2 5.5 3.2v12.7l5.5 3.2V83.6l-5.5-3.2-5.5-3.2z"/>
      <path stroke-width=".8" d="M144.4 74v6.4l-5.5 3.2-5.5 3.2v12.7l-5.5 3.2V83.6l5.5-3.2 5.5-3.2z"/>
      <path stroke-width=".8" d="M111.3 74L117 71l5.5 3.2 5.5 3.1 5.5-3.1 5.5-3.2 5.5 3.2-5.5 3.1-5.5 3.2-5.5 3.2-5.5-3.2-5.5-3.2z"/>
    </g>
    <path fill="none" stroke-width="1.3" d="M111.3 74L117 71l11 6.3 11-6.3 5.5 3.2v6.3l-11 6.4v12.7l-5.5 3.2-5.5-3.2V86.8l-11-6.4z"/>
  </g>
  <g stroke="#000">
    <g fill="#888" stroke-linecap="round" stroke-linejoin="round" paint-order="markers fill stroke">
      <path stroke-width=".7937399999999999" d="M111.3 99.5v6.4l5.6 3.2 5.5 3.1V125l5.5 3.1v-19l-5.5-3.2-5.5-3.2z"/>
      <path stroke-width=".8" d="M144.4 99.5v6.4L139 109l-5.5 3.1V125l-5.5 3.1v-19l5.5-3.2 5.5-3.2zM111.3 99.5l5.6-3.2 5.5 3.2 5.5 3.2 5.5-3.2 5.5-3.2 5.5 3.2-5.5 3.2-5.5 3.2-5.5 3.2-5.5-3.2-5.5-3.2z"/>
    </g>
    <path fill="none" stroke-width="1.3" d="M111.3 99.5l5.6-3.2 11 6.4 11-6.4 5.5 3.2v6.4l-11 6.3V125l-5.5 3.1-5.5-3.1v-12.8l-11-6.3z"/>
  </g>
  <g stroke="#000">
    <g fill="#888" stroke-linecap="round" stroke-linejoin="round" paint-order="markers fill stroke">
      <path stroke-width=".7937399999999999" d="M111.3 125v6.3l5.6 3.2 5.5 3.2v12.7l5.5 3.2v-19.1l-5.5-3.2-5.5-3.2z"/>
      <path stroke-width=".8" d="M144.4 125v6.3l-5.5 3.2-5.5 3.2v12.7l-5.5 3.2v-19.1l5.5-3.2 5.5-3.2z"/>
      <path stroke-width=".8" d="M111.3 125l5.6-3.2 5.5 3.2 5.5 3.1 5.5-3.1 5.5-3.2 5.5 3.2-5.5 3.1-5.5 3.2-5.5 3.2-5.5-3.2-5.5-3.2z"/>
    </g>
    <path fill="none" stroke-width="1.3" d="M111.3 125l5.6-3.2 11 6.3 11-6.3 5.5 3.2v6.3l-11 6.4v12.7l-5.5 3.2-5.5-3.2v-12.7l-11-6.4z"/>
  </g>
  <g stroke="#000">
    <g fill="#888" stroke-linecap="round" stroke-linejoin="round" paint-order="markers fill stroke">
      <path stroke-width=".7937399999999999" d="M111.3 150.4v6.4l5.6 3.2 5.5 3.1V176l5.5 3.1v-19l-5.5-3.2-5.5-3.2z"/>
      <path stroke-width=".8" d="M144.4 150.4v6.4L139 160l-5.5 3.1V176l-5.5 3.1v-19l5.5-3.2 5.5-3.2zM111.3 150.4l5.6-3.2 5.5 3.2 5.5 3.2 5.5-3.2 5.5-3.2 5.5 3.2-5.5 3.2-5.5 3.2-5.5 3.2-5.5-3.2-5.5-3.2z"/>
    </g>
    <path fill="none" stroke-width="1.3" d="M111.3 150.4l5.6-3.2 11 6.4 11-6.4 5.5 3.2v6.4l-11 6.3V176l-5.5 3.1-5.5-3.1V163l-11-6.3z"/>
  </g>
  <g stroke="#000">
    <g fill="#888" stroke-linecap="round" stroke-linejoin="round" paint-order="markers fill stroke">
      <path stroke-width=".7937399999999999" d="M111.3 175.9v6.3l5.6 3.2 5.5 3.2v12.7l5.5 3.2v-19.1l-5.5-3.2-5.5-3.2z"/>
      <path stroke-width=".8" d="M144.4 175.9v6.3l-5.5 3.2-5.5 3.2v12.7l-5.5 3.2v-19.1l5.5-3.2 5.5-3.2z"/>
      <path stroke-width=".8" d="M111.3 175.9l5.6-3.2 5.5 3.2 5.5 3.1 5.5-3.1 5.5-3.2 5.5 3.2-5.5 3.1-5.5 3.2-5.5 3.2-5.5-3.2-5.5-3.2z"/>
    </g>
    <path fill="none" stroke-width="1.3" d="M111.3 175.9l5.6-3.2 11 6.3 11-6.3 5.5 3.2v6.3l-11 6.4v12.7l-5.5 3.2-5.5-3.2v-12.7l-11-6.4z"/>
  </g>
  <g stroke="#000">
    <g fill="#888" stroke-linecap="round" stroke-linejoin="round" paint-order="markers fill stroke">
      <path stroke-width=".7937399999999999" d="M111.3 201.3v6.4l5.6 3.2 5.5 3.1v12.8l5.5 3.1v-19l-5.5-3.2-5.5-3.2z"/>
      <path stroke-width=".8" d="M144.4 201.3v6.4l-5.5 3.2-5.5 3.1v12.8l-5.5 3.1v-19l5.5-3.2 5.5-3.2zM111.3 201.3l5.6-3.2 5.5 3.2 5.5 3.2 5.5-3.2 5.5-3.2 5.5 3.2-5.5 3.2-5.5 3.2-5.5 3.2-5.5-3.2-5.5-3.2z"/>
    </g>
    <path fill="none" stroke-width="1.3" d="M111.3 201.3l5.6-3.2 11 6.4 11-6.4 5.5 3.2v6.4l-11 6.3v12.8l-5.5 3.1-5.5-3.1V214l-11-6.3z"/>
  </g>
  <g stroke="#000">
    <g fill="#888" stroke-linecap="round" stroke-linejoin="round" paint-order="markers fill stroke">
      <path stroke-width=".7937399999999999" d="M111.3-2.3v6.4l5.6 3.2 5.5 3.1v12.8l5.5 3.1v-19L122.4 4 116.9.9z"/>
      <path stroke-width=".8" d="M144.4-2.3v6.4L139 7.3l-5.5 3.1v12.8l-5.5 3.1v-19l5.5-3.2 5.5-3.2z"/>
      <path stroke-width=".8" d="M111.3-2.3l5.6-3.2 5.5 3.2 5.5 3.2 5.5-3.2 5.5-3.2 5.5 3.2L139 1 133.4 4l-5.5 3.2-5.5-3.2-5.5-3.2z"/>
    </g>
    <path fill="none" stroke-width="1.3" d="M111.3-2.3l5.6-3.2 11 6.4 11-6.4 5.5 3.2v6.4l-11 6.3v12.8l-5.5 3.1-5.5-3.1V10.4l-11-6.3z"/>
  </g>
  <g stroke="#000">
    <g fill="#888" stroke-linecap="round" stroke-linejoin="round" paint-order="markers fill stroke">
      <path stroke-width=".7937399999999999" d="M111.3-27.7v6.3l5.6 3.2 5.5 3.2v12.7l5.5 3.2v-19.1l-5.5-3.2-5.5-3.2z"/>
      <path stroke-width=".8" d="M144.4-27.7v6.3l-5.5 3.2-5.5 3.2v12.7L127.9 1v-19.1l5.5-3.2 5.5-3.2zM111.3-27.7L117-31l5.5 3.2 5.5 3.1 5.5-3.1 5.5-3.2 5.5 3.2-5.5 3.1-5.5 3.2-5.5 3.2-5.5-3.2-5.5-3.2z"/>
    </g>
    <path fill="none" stroke-width="1.3" d="M111.3-27.7L117-31l11 6.3 11-6.3 5.5 3.2v6.3l-11 6.4v12.7L127.9 1l-5.5-3.2V-15l-11-6.3z"/>
  </g>
  <g stroke="#000">
    <g fill="#888" stroke-linecap="round" stroke-linejoin="round" paint-order="markers fill stroke">
      <path stroke-width=".7937399999999999" d="M133.4 35.9v6.4l5.5 3.1 5.5 3.2v12.7l5.5 3.2V45.4l-5.5-3.1L139 39z"/>
      <path stroke-width=".8" d="M166.5 35.9v6.4l-5.5 3.1-5.5 3.2v12.7l-5.6 3.2V45.4l5.6-3.1L161 39z"/>
      <path stroke-width=".8" d="M133.4 35.9l5.5-3.2 5.5 3.2L150 39l5.6-3.2 5.5-3.2 5.5 3.2-5.5 3.2-5.5 3.2-5.6 3.1-5.5-3.1L139 39z"/>
    </g>
    <path fill="none" stroke-width="1.3" d="M133.4 35.9l5.5-3.2 11 6.4 11-6.4 5.6 3.2v6.4l-11 6.3v12.7l-5.6 3.2-5.5-3.2V48.6l-11-6.3z"/>
  </g>
  <g stroke="#000">
    <g fill="#888" stroke-linecap="round" stroke-linejoin="round" paint-order="markers fill stroke">
      <path stroke-width=".7937399999999999" d="M133.4 61.3v6.4l5.5 3.2 5.5 3.2v12.7L150 90V70.9l-5.5-3.2-5.5-3.2z"/>
      <path stroke-width=".8" d="M166.5 61.3v6.4L161 71l-5.5 3.2v12.7l-5.6 3.2V70.9l5.6-3.2 5.5-3.2z"/>
      <path stroke-width=".8" d="M133.4 61.3l5.5-3.1 5.5 3.1 5.5 3.2 5.6-3.2 5.5-3.1 5.5 3.2-5.5 3.1-5.5 3.2-5.6 3.2-5.5-3.2-5.5-3.2z"/>
    </g>
    <path fill="none" stroke-width="1.3" d="M133.4 61.3l5.5-3.1 11 6.3 11-6.3 5.6 3.2v6.3l-11 6.4v12.7l-5.6 3.2-5.5-3.2V74l-11-6.4z"/>
  </g>
  <g stroke="#000">
    <g fill="#888" stroke-linecap="round" stroke-linejoin="round" paint-order="markers fill stroke">
      <path stroke-width=".7937399999999999" d="M133.4 86.8v6.4l5.5 3.1 5.5 3.2v12.7l5.5 3.2V96.3l-5.5-3.1L139 90z"/>
      <path stroke-width=".8" d="M166.5 86.8v6.4l-5.5 3.1-5.5 3.2v12.7l-5.6 3.2V96.3l5.6-3.1L161 90z"/>
      <path stroke-width=".8" d="M133.4 86.8l5.5-3.2 5.5 3.2L150 90l5.6-3.2 5.5-3.2 5.5 3.2L161 90l-5.5 3.2-5.6 3.1-5.5-3.1L139 90z"/>
    </g>
    <path fill="none" stroke-width="1.3" d="M133.4 86.8l5.5-3.2 11 6.4 11-6.4 5.6 3.2v6.4l-11 6.3v12.7l-5.6 3.2-5.5-3.2V99.5l-11-6.3z"/>
  </g>
  <g stroke="#000">
    <g fill="#888" stroke-linecap="round" stroke-linejoin="round" paint-order="markers fill stroke">
      <path stroke-width=".7937399999999999" d="M133.4 112.2v6.4l5.5 3.2 5.5 3.2v12.7l5.5 3.2v-19.1l-5.5-3.2-5.5-3.2z"/>
      <path stroke-width=".8" d="M166.5 112.2v6.4l-5.5 3.2-5.5 3.2v12.7l-5.6 3.2v-19.1l5.6-3.2 5.5-3.2z"/>
      <path stroke-width=".8" d="M133.4 112.2l5.5-3.1 5.5 3.1 5.5 3.2 5.6-3.2 5.5-3.1 5.5 3.1-5.5 3.2-5.5 3.2-5.6 3.2-5.5-3.2-5.5-3.2z"/>
    </g>
    <path fill="none" stroke-width="1.3" d="M133.4 112.2l5.5-3.1 11 6.3 11-6.3 5.6 3.1v6.4l-11 6.4v12.7l-5.6 3.2-5.5-3.2V125l-11-6.4z"/>
  </g>
  <g stroke="#000">
    <g fill="#888" stroke-linecap="round" stroke-linejoin="round" paint-order="markers fill stroke">
      <path stroke-width=".7937399999999999" d="M133.4 137.7v6.4l5.5 3.1 5.5 3.2v12.7l5.5 3.2v-19.1l-5.5-3.1-5.5-3.2z"/>
      <path stroke-width=".8" d="M166.5 137.7v6.4l-5.5 3.1-5.5 3.2v12.7l-5.6 3.2v-19.1l5.6-3.1 5.5-3.2z"/>
      <path stroke-width=".8" d="M133.4 137.7l5.5-3.2 5.5 3.2 5.5 3.2 5.6-3.2 5.5-3.2 5.5 3.2-5.5 3.2-5.5 3.2-5.6 3.1-5.5-3.1-5.5-3.2z"/>
    </g>
    <path fill="none" stroke-width="1.3" d="M133.4 137.7l5.5-3.2 11 6.4 11-6.4 5.6 3.2v6.4l-11 6.3v12.7l-5.6 3.2-5.5-3.2v-12.7l-11-6.3z"/>
  </g>
  <g stroke="#000">
    <g fill="#888" stroke-linecap="round" stroke-linejoin="round" paint-order="markers fill stroke">
      <path stroke-width=".7937399999999999" d="M133.4 163.1v6.4l5.5 3.2 5.5 3.2v12.7l5.5 3.2v-19.1l-5.5-3.2-5.5-3.2z"/>
      <path stroke-width=".8" d="M166.5 163.1v6.4l-5.5 3.2-5.5 3.2v12.7l-5.6 3.2v-19.1l5.6-3.2 5.5-3.2z"/>
      <path stroke-width=".8" d="M133.4 163.1l5.5-3.1 5.5 3.1 5.5 3.2 5.6-3.2 5.5-3.1 5.5 3.1-5.5 3.2-5.5 3.2-5.6 3.2-5.5-3.2-5.5-3.2z"/>
    </g>
    <path fill="none" stroke-width="1.3" d="M133.4 163.1l5.5-3.1 11 6.3 11-6.3 5.6 3.1v6.4l-11 6.4v12.7l-5.6 3.2-5.5-3.2v-12.7l-11-6.4z"/>
  </g>
  <g stroke="#000">
    <g fill="#888" stroke-linecap="round" stroke-linejoin="round" paint-order="markers fill stroke">
      <path stroke-width=".7937399999999999" d="M133.4 188.6v6.4l5.5 3.1 5.5 3.2V214l5.5 3.2v-19.1l-5.5-3.1-5.5-3.2z"/>
      <path stroke-width=".8" d="M166.5 188.6v6.4L161 198l-5.5 3.2V214l-5.6 3.2v-19.1l5.6-3.1 5.5-3.2z"/>
      <path stroke-width=".8" d="M133.4 188.6l5.5-3.2 5.5 3.2 5.5 3.2 5.6-3.2 5.5-3.2 5.5 3.2-5.5 3.2-5.5 3.2-5.6 3.1-5.5-3.1-5.5-3.2z"/>
    </g>
    <path fill="none" stroke-width="1.3" d="M133.4 188.6l5.5-3.2 11 6.4 11-6.4 5.6 3.2v6.4l-11 6.3V214l-5.6 3.2-5.5-3.2v-12.7l-11-6.3z"/>
  </g>
  <g stroke="#000">
    <g fill="#888" stroke-linecap="round" stroke-linejoin="round" paint-order="markers fill stroke">
      <path stroke-width=".7937399999999999" d="M133.4 214v6.4l5.5 3.2 5.5 3.2v12.7l5.5 3.2v-19.1l-5.5-3.2-5.5-3.2z"/>
      <path stroke-width=".8" d="M166.5 214v6.4l-5.5 3.2-5.5 3.2v12.7l-5.6 3.2v-19.1l5.6-3.2 5.5-3.2z"/>
      <path stroke-width=".8" d="M133.4 214l5.5-3.1 5.5 3.1 5.5 3.2 5.6-3.2 5.5-3.1 5.5 3.1-5.5 3.2-5.5 3.2-5.6 3.2-5.5-3.2-5.5-3.2z"/>
    </g>
    <path fill="none" stroke-width="1.3" d="M133.4 214l5.5-3.1 11 6.3 11-6.3 5.6 3.1v6.4l-11 6.4v12.7l-5.6 3.2-5.5-3.2v-12.7l-11-6.4z"/>
  </g>
  <g stroke="#000">
    <g fill="#888" stroke-linecap="round" stroke-linejoin="round" paint-order="markers fill stroke">
      <path stroke-width=".7937399999999999" d="M133.4 10.4v6.4l5.5 3.2 5.5 3.2v12.7L150 39V20l-5.5-3.2-5.5-3.2z"/>
      <path stroke-width=".8" d="M166.5 10.4v6.4L161 20l-5.5 3.2v12.7l-5.6 3.2V20l5.6-3.2 5.5-3.2z"/>
      <path stroke-width=".8" d="M133.4 10.4l5.5-3.1 5.5 3.1 5.5 3.2 5.6-3.2 5.5-3.1 5.5 3.2-5.5 3.1-5.5 3.2-5.6 3.2-5.5-3.2-5.5-3.2z"/>
    </g>
    <path fill="none" stroke-width="1.3" d="M133.4 10.4l5.5-3.1 11 6.3 11-6.3 5.6 3.2v6.3l-11 6.4v12.7l-5.6 3.2-5.5-3.2V23.2l-11-6.4z"/>
  </g>
  <g stroke="#000">
    <g fill="#888" stroke-linecap="round" stroke-linejoin="round" paint-order="markers fill stroke">
      <path stroke-width=".7937399999999999" d="M133.4-15v6.4l5.5 3.1 5.5 3.2v12.7l5.5 3.2V-5.5l-5.5-3.1-5.5-3.2z"/>
      <path stroke-width=".8" d="M166.5-15v6.4L161-5.5l-5.5 3.2v12.7l-5.6 3.2V-5.5l5.6-3.1 5.5-3.2z"/>
      <path stroke-width=".8" d="M133.4-15l5.5-3.2 5.5 3.2 5.5 3.2 5.6-3.2 5.5-3.2 5.5 3.2-5.5 3.2-5.5 3.2-5.6 3.1-5.5-3.1-5.5-3.2z"/>
    </g>
    <path fill="none" stroke-width="1.3" d="M133.4-15l5.5-3.2 11 6.4 11-6.4 5.6 3.2v6.4l-11 6.3v12.7l-5.6 3.2-5.5-3.2V-2.3l-11-6.3z"/>
  </g>
  <g stroke="#000">
    <g fill="#888" stroke-linecap="round" stroke-linejoin="round" paint-order="markers fill stroke">
      <path stroke-width=".7937399999999999" d="M155.4 23.2v6.3l5.6 3.2 5.5 3.2v12.7l5.5 3.2V32.7l-5.5-3.2-5.5-3.1z"/>
      <path stroke-width=".8" d="M188.5 23.2v6.3l-5.5 3.2-5.5 3.2v12.7l-5.5 3.2V32.7l5.5-3.2 5.5-3.1z"/>
      <path stroke-width=".8" d="M155.4 23.2L161 20l5.5 3.2 5.5 3.2 5.5-3.2L183 20l5.5 3.2-5.5 3.2-5.5 3.1-5.5 3.2-5.5-3.2-5.5-3.1z"/>
    </g>
    <path fill="none" stroke-width="1.3" d="M155.4 23.2L161 20l11 6.4 11-6.4 5.5 3.2v6.3l-11 6.4v12.7l-5.5 3.2-5.5-3.2V36l-11-6.3z"/>
  </g>
  <g stroke="#000">
    <g fill="#888" stroke-linecap="round" stroke-linejoin="round" paint-order="markers fill stroke">
      <path stroke-width=".7937399999999999" d="M155.4 48.6V55l5.6 3.2 5.5 3.2V74l5.5 3.2V58.2l-5.5-3.2-5.5-3.2z"/>
      <path stroke-width=".8" d="M188.5 48.6V55l-5.5 3.2-5.5 3.2V74l-5.5 3.2V58.2l5.5-3.2 5.5-3.2z"/>
      <path stroke-width=".8" d="M155.4 48.6l5.6-3.2 5.5 3.2 5.5 3.2 5.5-3.2 5.5-3.2 5.5 3.2-5.5 3.2-5.5 3.2-5.5 3.2-5.5-3.2-5.5-3.2z"/>
    </g>
    <path fill="none" stroke-width="1.3" d="M155.4 48.6l5.6-3.2 11 6.4 11-6.4 5.5 3.2V55l-11 6.4V74l-5.5 3.2-5.5-3.2V61.4l-11-6.4z"/>
  </g>
  <g stroke="#000">
    <g fill="#888" stroke-linecap="round" stroke-linejoin="round" paint-order="markers fill stroke">
      <path stroke-width=".7937399999999999" d="M155.4 74v6.4l5.6 3.2 5.5 3.2v12.7l5.5 3.2V83.6l-5.5-3.2-5.5-3.2z"/>
      <path stroke-width=".8" d="M188.5 74v6.4l-5.5 3.2-5.5 3.2v12.7l-5.5 3.2V83.6l5.5-3.2 5.5-3.2z"/>
      <path stroke-width=".8" d="M155.4 74L161 71l5.5 3.2 5.5 3.2 5.5-3.2 5.5-3.2 5.5 3.2-5.5 3.1-5.5 3.2-5.5 3.2-5.5-3.2-5.5-3.2z"/>
    </g>
    <path fill="none" stroke-width="1.3" d="M155.4 74L161 71l11 6.4 11-6.4 5.5 3.2v6.3l-11 6.4v12.7l-5.5 3.2-5.5-3.2V86.8l-11-6.3z"/>
  </g>
  <g stroke="#000">
    <g fill="#888" stroke-linecap="round" stroke-linejoin="round" paint-order="markers fill stroke">
      <path stroke-width=".7937399999999999" d="M155.4 99.5v6.4l5.6 3.2 5.5 3.1V125l5.5 3.1v-19l-5.5-3.2-5.5-3.2z"/>
      <path stroke-width=".8" d="M188.5 99.5v6.4L183 109l-5.5 3.1V125L172 128v-19l5.5-3.2 5.5-3.2z"/>
      <path stroke-width=".8" d="M155.4 99.5l5.6-3.2 5.5 3.2 5.5 3.2 5.5-3.2 5.5-3.2 5.5 3.2-5.5 3.2-5.5 3.2-5.5 3.2-5.5-3.2-5.5-3.2z"/>
    </g>
    <path fill="none" stroke-width="1.3" d="M155.4 99.5l5.6-3.2 11 6.4 11-6.4 5.5 3.2v6.4l-11 6.3V125L172 128l-5.5-3.1v-12.8l-11-6.3z"/>
  </g>
  <g stroke="#000">
    <g fill="#888" stroke-linecap="round" stroke-linejoin="round" paint-order="markers fill stroke">
      <path stroke-width=".7937399999999999" d="M155.4 125v6.3l5.6 3.2 5.5 3.2v12.7l5.5 3.2v-19.1l-5.5-3.2-5.5-3.2z"/>
      <path stroke-width=".8" d="M188.5 125v6.3l-5.5 3.2-5.5 3.2v12.7l-5.5 3.2v-19.1l5.5-3.2 5.5-3.2z"/>
      <path stroke-width=".8" d="M155.4 125l5.6-3.2 5.5 3.2 5.5 3.1 5.5-3.1 5.5-3.2 5.5 3.2-5.5 3.1-5.5 3.2-5.5 3.2-5.5-3.2-5.5-3.2z"/>
    </g>
    <path fill="none" stroke-width="1.3" d="M155.4 125l5.6-3.2 11 6.3 11-6.3 5.5 3.2v6.3l-11 6.4v12.7l-5.5 3.2-5.5-3.2v-12.7l-11-6.3z"/>
  </g>
  <g stroke="#000">
    <g fill="#888" stroke-linecap="round" stroke-linejoin="round" paint-order="markers fill stroke">
      <path stroke-width=".7937399999999999" d="M155.4 150.4v6.4l5.6 3.2 5.5 3.1V176l5.5 3.1v-19l-5.5-3.2-5.5-3.2z"/>
      <path stroke-width=".8" d="M188.5 150.4v6.4L183 160l-5.5 3.1V176L172 179v-19l5.5-3.2 5.5-3.2zM155.4 150.4l5.6-3.2 5.5 3.2 5.5 3.2 5.5-3.2 5.5-3.2 5.5 3.2-5.5 3.2-5.5 3.2-5.5 3.2-5.5-3.2-5.5-3.2z"/>
    </g>
    <path fill="none" stroke-width="1.3" d="M155.4 150.4l5.6-3.2 11 6.4 11-6.4 5.5 3.2v6.4l-11 6.3V176L172 179l-5.5-3.1V163l-11-6.3z"/>
  </g>
  <g stroke="#000">
    <g fill="#888" stroke-linecap="round" stroke-linejoin="round" paint-order="markers fill stroke">
      <path stroke-width=".7937399999999999" d="M155.4 175.9v6.3l5.6 3.2 5.5 3.2v12.7l5.5 3.2v-19.1l-5.5-3.2-5.5-3.2z"/>
      <path stroke-width=".8" d="M188.5 175.9v6.3l-5.5 3.2-5.5 3.2v12.7l-5.5 3.2v-19.1l5.5-3.2 5.5-3.2z"/>
      <path stroke-width=".8" d="M155.4 175.9l5.6-3.2 5.5 3.2 5.5 3.1 5.5-3.1 5.5-3.2 5.5 3.2-5.5 3.1-5.5 3.2-5.5 3.2-5.5-3.2-5.5-3.2z"/>
    </g>
    <path fill="none" stroke-width="1.3" d="M155.4 175.9l5.6-3.2 11 6.3 11-6.3 5.5 3.2v6.3l-11 6.4v12.7l-5.5 3.2-5.5-3.2v-12.7l-11-6.3z"/>
  </g>
  <g stroke="#000">
    <g fill="#888" stroke-linecap="round" stroke-linejoin="round" paint-order="markers fill stroke">
      <path stroke-width=".7937399999999999" d="M155.4 201.3v6.4l5.5 3.2 5.6 3.1v12.8l5.5 3.1v-19l-5.5-3.2-5.6-3.2z"/>
      <path stroke-width=".8" d="M188.5 201.3v6.4l-5.5 3.2-5.5 3.1v12.8l-5.5 3.1v-19l5.5-3.2 5.5-3.2zM155.4 201.3l5.6-3.2 5.5 3.2 5.5 3.2 5.5-3.2 5.5-3.2 5.5 3.2-5.5 3.2-5.5 3.2-5.5 3.2-5.5-3.2-5.5-3.2z"/>
    </g>
    <path fill="none" stroke-width="1.3" d="M155.4 201.3l5.6-3.2 11 6.4 11-6.4 5.5 3.2v6.4l-11 6.3v12.8l-5.5 3.1-5.5-3.1V214l-11-6.3z"/>
  </g>
  <g stroke="#000">
    <g fill="#888" stroke-linecap="round" stroke-linejoin="round" paint-order="markers fill stroke">
      <path stroke-width=".7937399999999999" d="M155.4-2.3v6.4l5.6 3.2 5.5 3.2v12.7l5.5 3.2V7.3L166.5 4 161 .9z"/>
      <path stroke-width=".8" d="M188.5-2.3v6.4L183 7.3l-5.5 3.2v12.7l-5.5 3.2V7.3l5.5-3.2L183 .9z"/>
      <path stroke-width=".8" d="M155.4-2.3l5.6-3.2 5.5 3.2L172 1l5.5-3.2 5.5-3.2 5.5 3.2L183 1l-5.5 3.2-5.5 3.2-5.5-3.2L161 .9z"/>
    </g>
    <path fill="none" stroke-width="1.3" d="M155.4-2.3l5.6-3.2L172 1l11-6.4 5.5 3.2v6.4l-11 6.4v12.7l-5.5 3.2-5.5-3.2V10.5l-11-6.4z"/>
  </g>
  <g stroke="#000">
    <g fill="#888" stroke-linecap="round" stroke-linejoin="round" paint-order="markers fill stroke">
      <path stroke-width=".7937399999999999" d="M155.4-27.7v6.3l5.6 3.2 5.5 3.2v12.7L172 1v-19.1l-5.5-3.2-5.5-3.1z"/>
      <path stroke-width=".8" d="M188.5-27.7v6.3l-5.5 3.2-5.5 3.2v12.7L172 1v-19.1l5.5-3.2 5.5-3.1zM155.4-27.7L161-31l5.5 3.2 5.5 3.2 5.5-3.2L183-31l5.5 3.2-5.5 3.2-5.5 3.1-5.5 3.2-5.5-3.2-5.5-3.1z"/>
    </g>
    <path fill="none" stroke-width="1.3" d="M155.4-27.7L161-31l11 6.4 11-6.4 5.5 3.2v6.3l-11 6.4v12.7L172 1l-5.5-3.2V-15l-11-6.3z"/>
  </g>
  <g stroke="#000">
    <g fill="#888" stroke-linecap="round" stroke-linejoin="round" paint-order="markers fill stroke">
      <path stroke-width=".7937399999999999" d="M177.5 35.9v6.4l5.5 3.2 5.5 3.1v12.8l5.5 3.1v-19l-5.5-3.2L183 39z"/>
      <path stroke-width=".8" d="M210.6 35.9v6.4l-5.5 3.2-5.6 3.1v12.8l-5.5 3.1v-19l5.5-3.2 5.6-3.2z"/>
      <path stroke-width=".8" d="M177.5 35.9l5.5-3.2 5.5 3.2 5.5 3.2 5.5-3.2 5.5-3.2 5.6 3.2-5.5 3.2-5.6 3.2-5.5 3.2-5.5-3.2L183 39z"/>
    </g>
    <path fill="none" stroke-width="1.3" d="M177.5 35.9l5.5-3.2 11 6.4 11-6.4 5.6 3.2v6.4l-11 6.3v12.8l-5.6 3.1-5.5-3.1V48.6l-11-6.3z"/>
  </g>
  <g stroke="#000">
    <g fill="#888" stroke-linecap="round" stroke-linejoin="round" paint-order="markers fill stroke">
      <path stroke-width=".7937399999999999" d="M177.5 61.4v6.3L183 71l5.5 3.2v12.7L194 90V70.9l-5.5-3.2-5.5-3.2z"/>
      <path stroke-width=".8" d="M210.6 61.4v6.3L205 71l-5.6 3.2v12.7L194 90V70.9l5.5-3.2 5.6-3.2z"/>
      <path stroke-width=".8" d="M177.5 61.4l5.5-3.2 5.5 3.2 5.5 3.1 5.5-3.1 5.5-3.2 5.6 3.2-5.5 3.1-5.6 3.2L194 71l-5.5-3.2-5.5-3.2z"/>
    </g>
    <path fill="none" stroke-width="1.3" d="M177.5 61.4l5.5-3.2 11 6.3 11-6.3 5.6 3.2v6.3l-11 6.4v12.7L194 90l-5.5-3.2V74.1l-11-6.4z"/>
  </g>
  <g stroke="#000">
    <g fill="#888" stroke-linecap="round" stroke-linejoin="round" paint-order="markers fill stroke">
      <path stroke-width=".7937399999999999" d="M177.5 86.8v6.4l5.5 3.1 5.5 3.2v12.7l5.5 3.2V96.3l-5.5-3.1L183 90z"/>
      <path stroke-width=".8" d="M210.6 86.8v6.4l-5.5 3.1-5.6 3.2v12.7l-5.5 3.2V96.3l5.5-3.1 5.6-3.2zM177.5 86.8l5.5-3.2 5.5 3.2L194 90l5.5-3.2 5.5-3.2 5.6 3.2L205 90l-5.6 3.2-5.5 3.1-5.5-3.1L183 90z"/>
    </g>
    <path fill="none" stroke-width="1.3" d="M177.5 86.8l5.5-3.2 11 6.4 11-6.4 5.6 3.2v6.4l-11 6.3v12.7l-5.6 3.2-5.5-3.2V99.5l-11-6.3z"/>
  </g>
  <g stroke="#000">
    <g fill="#888" stroke-linecap="round" stroke-linejoin="round" paint-order="markers fill stroke">
      <path stroke-width=".7937399999999999" d="M177.5 112.2v6.4l5.5 3.2 5.5 3.2v12.7l5.5 3.2v-19.1l-5.5-3.2-5.5-3.2z"/>
      <path stroke-width=".8" d="M210.6 112.2v6.4l-5.5 3.2-5.6 3.2v12.7l-5.5 3.2v-19.1l5.5-3.2 5.6-3.2z"/>
      <path stroke-width=".8" d="M177.5 112.2l5.5-3.1 5.5 3.1 5.5 3.2 5.5-3.2 5.5-3.1 5.6 3.2-5.5 3.1-5.6 3.2-5.5 3.2-5.5-3.2-5.5-3.2z"/>
    </g>
    <path fill="none" stroke-width="1.3" d="M177.5 112.2l5.5-3.1 11 6.3 11-6.3 5.6 3.2v6.3l-11 6.4v12.7l-5.6 3.2-5.5-3.2V125l-11-6.4z"/>
  </g>
  <g stroke="#000">
    <g fill="#888" stroke-linecap="round" stroke-linejoin="round" paint-order="markers fill stroke">
      <path stroke-width=".7937399999999999" d="M177.5 137.7v6.4l5.5 3.1 5.5 3.2v12.7l5.5 3.2v-19.1l-5.5-3.1-5.5-3.2z"/>
      <path stroke-width=".8" d="M210.6 137.7v6.4l-5.5 3.1-5.6 3.2v12.7l-5.5 3.2v-19.1l5.5-3.1 5.6-3.2z"/>
      <path stroke-width=".8" d="M177.5 137.7l5.5-3.2 5.5 3.2 5.5 3.2 5.5-3.2 5.5-3.2 5.6 3.2-5.5 3.2-5.6 3.2-5.5 3.1-5.5-3.1-5.5-3.2z"/>
    </g>
    <path fill="none" stroke-width="1.3" d="M177.5 137.7l5.5-3.2 11 6.4 11-6.4 5.6 3.2v6.4l-11 6.3v12.7l-5.6 3.2-5.5-3.2v-12.7l-11-6.3z"/>
  </g>
  <g stroke="#000">
    <g fill="#888" stroke-linecap="round" stroke-linejoin="round" paint-order="markers fill stroke">
      <path stroke-width=".7937399999999999" d="M177.5 163.1v6.4l5.5 3.2 5.5 3.2v12.7l5.5 3.2v-19.1l-5.5-3.2-5.5-3.2z"/>
      <path stroke-width=".8" d="M210.6 163.1v6.4l-5.5 3.2-5.6 3.2v12.7l-5.5 3.2v-19.1l5.5-3.2 5.6-3.2z"/>
      <path stroke-width=".8" d="M177.5 163.1l5.5-3.1 5.5 3.1 5.5 3.2 5.5-3.2 5.5-3.1 5.6 3.2-5.5 3.1-5.6 3.2-5.5 3.2-5.5-3.2-5.5-3.2z"/>
    </g>
    <path fill="none" stroke-width="1.3" d="M177.5 163.1l5.5-3.1 11 6.3 11-6.3 5.6 3.2v6.3l-11 6.4v12.7l-5.6 3.2-5.5-3.2v-12.7l-11-6.4z"/>
  </g>
  <g stroke="#000">
    <g fill="#888" stroke-linecap="round" stroke-linejoin="round" paint-order="markers fill stroke">
      <path stroke-width=".7937399999999999" d="M177.5 188.6v6.4l5.5 3.1 5.5 3.2V214l5.5 3.2v-19.1l-5.5-3.1-5.5-3.2z"/>
      <path stroke-width=".8" d="M210.6 188.6v6.4L205 198l-5.6 3.2V214l-5.5 3.2v-19.1l5.5-3.1 5.6-3.2z"/>
      <path stroke-width=".8" d="M177.5 188.6l5.5-3.2 5.5 3.2 5.5 3.2 5.5-3.2 5.5-3.2 5.6 3.2-5.5 3.2-5.6 3.2-5.5 3.1-5.5-3.1-5.5-3.2z"/>
    </g>
    <path fill="none" stroke-width="1.3" d="M177.5 188.6l5.5-3.2 11 6.4 11-6.4 5.6 3.2v6.4l-11 6.3V214l-5.6 3.2-5.5-3.2v-12.7l-11-6.3z"/>
  </g>
  <g stroke="#000">
    <g fill="#888" stroke-linecap="round" stroke-linejoin="round" paint-order="markers fill stroke">
      <path stroke-width=".7937399999999999" d="M177.5 214v6.4l5.5 3.2 5.5 3.2v12.7l5.5 3.2v-19.1l-5.5-3.2-5.5-3.2z"/>
      <path stroke-width=".8" d="M210.6 214v6.4l-5.5 3.2-5.6 3.2v12.7l-5.5 3.2v-19.1l5.5-3.2 5.6-3.2z"/>
      <path stroke-width=".8" d="M177.5 214l5.5-3.1 5.5 3.1 5.5 3.2 5.5-3.2 5.5-3.1 5.6 3.2-5.5 3.1-5.6 3.2-5.5 3.2-5.5-3.2-5.5-3.2z"/>
    </g>
    <path fill="none" stroke-width="1.3" d="M177.5 214l5.5-3.1 11 6.3 11-6.3 5.6 3.2v6.3l-11 6.4v12.7l-5.6 3.2-5.5-3.2v-12.7l-11-6.4z"/>
  </g>
  <g stroke="#000">
    <g fill="#888" stroke-linecap="round" stroke-linejoin="round" paint-order="markers fill stroke">
      <path stroke-width=".7937399999999999" d="M177.5 10.5v6.3L183 20l5.5 3.2v12.7l5.5 3.2V20l-5.5-3.2-5.5-3.2z"/>
      <path stroke-width=".8" d="M210.6 10.5v6.3L205 20l-5.6 3.2v12.7l-5.5 3.2V20l5.5-3.2 5.6-3.2z"/>
      <path stroke-width=".8" d="M177.5 10.5l5.5-3.2 5.5 3.2 5.5 3.1 5.5-3.1 5.5-3.2 5.6 3.2-5.5 3.1-5.6 3.2L194 20l-5.5-3.2-5.5-3.2z"/>
    </g>
    <path fill="none" stroke-width="1.3" d="M177.5 10.5l5.5-3.2 11 6.3 11-6.3 5.6 3.2v6.3l-11 6.4v12.7l-5.6 3.2-5.5-3.2V23.2l-11-6.4z"/>
  </g>
  <g stroke="#000">
    <g fill="#888" stroke-linecap="round" stroke-linejoin="round" paint-order="markers fill stroke">
      <path stroke-width=".7937399999999999" d="M177.5-15v6.4l5.5 3.2 5.5 3.1v12.8l5.5 3.1v-19l-5.5-3.2-5.5-3.2z"/>
      <path stroke-width=".8" d="M210.6-15v6.4L205-5.4l-5.6 3.1v12.8l-5.5 3.1v-19l5.5-3.2 5.6-3.2z"/>
      <path stroke-width=".8" d="M177.5-15l5.5-3.2 5.5 3.2 5.5 3.2 5.5-3.2 5.5-3.2 5.6 3.2-5.5 3.2-5.6 3.2-5.5 3.2-5.5-3.2-5.5-3.2z"/>
    </g>
    <path fill="none" stroke-width="1.3" d="M177.5-15l5.5-3.2 11 6.4 11-6.4 5.6 3.2v6.4l-11 6.3v12.8l-5.6 3.1-5.5-3.1V-2.3l-11-6.3z"/>
  </g>
  <g stroke="#000">
    <g fill="#888" stroke-linecap="round" stroke-linejoin="round" paint-order="markers fill stroke">
      <path stroke-width=".7937399999999999" d="M199.5 23.2v6.4l5.6 3.1 5.5 3.2v12.7l5.5 3.2V32.7l-5.5-3.1-5.5-3.2z"/>
      <path stroke-width=".8" d="M232.6 23.2v6.4l-5.5 3.1-5.5 3.2v12.7l-5.5 3.2V32.7l5.5-3.1 5.5-3.2z"/>
      <path stroke-width=".8" d="M199.5 23.2l5.6-3.2 5.5 3.2 5.5 3.2 5.5-3.2 5.5-3.2 5.5 3.2-5.5 3.2-5.5 3.2-5.5 3.1-5.5-3.1-5.5-3.2z"/>
    </g>
    <path fill="none" stroke-width="1.3" d="M199.5 23.2l5.6-3.2 11 6.4 11-6.4 5.5 3.2v6.4l-11 6.3v12.7l-5.5 3.2-5.5-3.2V36l-11-6.3z"/>
  </g>
  <g stroke="#000">
    <g fill="#888" stroke-linecap="round" stroke-linejoin="round" paint-order="markers fill stroke">
      <path stroke-width=".7937399999999999" d="M199.5 48.6V55l5.6 3.2 5.5 3.2V74l5.5 3.2V58.2l-5.5-3.2-5.5-3.2z"/>
      <path stroke-width=".8" d="M232.6 48.6V55l-5.5 3.2-5.5 3.2V74l-5.5 3.2V58.2l5.5-3.2 5.5-3.2z"/>
      <path stroke-width=".8" d="M199.5 48.6l5.6-3.1 5.5 3.1 5.5 3.2 5.5-3.2 5.5-3.1 5.5 3.1-5.5 3.2-5.5 3.2-5.5 3.2-5.5-3.2-5.5-3.2z"/>
    </g>
    <path fill="none" stroke-width="1.3" d="M199.5 48.6l5.6-3.1 11 6.3 11-6.3 5.5 3.1V55l-11 6.4V74l-5.5 3.2-5.5-3.2V61.4l-11-6.4z"/>
  </g>
  <g stroke="#000">
    <g fill="#888" stroke-linecap="round" stroke-linejoin="round" paint-order="markers fill stroke">
      <path stroke-width=".7937399999999999" d="M199.5 74v6.4l5.6 3.2 5.5 3.2v12.7l5.5 3.2V83.6l-5.5-3.2-5.5-3.1z"/>
      <path stroke-width=".8" d="M232.6 74v6.4l-5.5 3.2-5.5 3.2v12.7l-5.5 3.2V83.6l5.5-3.2 5.5-3.1z"/>
      <path stroke-width=".8" d="M199.5 74l5.6-3.1 5.5 3.2 5.5 3.2 5.5-3.2 5.5-3.2 5.5 3.2-5.5 3.2-5.5 3.1-5.5 3.2-5.5-3.2-5.5-3.1z"/>
    </g>
    <path fill="none" stroke-width="1.3" d="M199.5 74l5.6-3.1 11 6.4 11-6.4 5.5 3.2v6.3l-11 6.4v12.7l-5.5 3.2-5.5-3.2V86.8l-11-6.3z"/>
  </g>
  <g stroke="#000">
    <g fill="#888" stroke-linecap="round" stroke-linejoin="round" paint-order="markers fill stroke">
      <path stroke-width=".7937399999999999" d="M199.5 99.5v6.4l5.6 3.2 5.5 3.2V125l5.5 3.2V109l-5.5-3.2-5.5-3.2z"/>
      <path stroke-width=".8" d="M232.6 99.5v6.4l-5.5 3.2-5.5 3.2V125l-5.5 3.2V109l5.5-3.2 5.5-3.2z"/>
      <path stroke-width=".8" d="M199.5 99.5l5.6-3.2 5.5 3.2 5.5 3.2 5.5-3.2 5.5-3.1 5.5 3.1-5.5 3.2-5.5 3.2-5.5 3.2-5.5-3.2-5.5-3.2z"/>
    </g>
    <path fill="none" stroke-width="1.3" d="M199.5 99.5l5.6-3.2 11 6.4 11-6.3 5.5 3.1v6.4l-11 6.4V125l-5.5 3.2-5.5-3.2v-12.7l-11-6.4z"/>
  </g>
  <g stroke="#000">
    <g fill="#888" stroke-linecap="round" stroke-linejoin="round" paint-order="markers fill stroke">
      <path stroke-width=".7937399999999999" d="M199.5 125v6.3l5.6 3.2 5.5 3.2v12.7l5.5 3.2v-19.1l-5.5-3.2-5.5-3.1z"/>
      <path stroke-width=".8" d="M232.6 125v6.3l-5.5 3.2-5.5 3.2v12.7l-5.5 3.2v-19.1l5.5-3.2 5.5-3.1z"/>
      <path stroke-width=".8" d="M199.5 125l5.6-3.2 5.5 3.2 5.5 3.2 5.5-3.2 5.5-3.2 5.5 3.2-5.5 3.2-5.5 3.1-5.5 3.2-5.5-3.2-5.5-3.1z"/>
    </g>
    <path fill="none" stroke-width="1.3" d="M199.5 125l5.6-3.2 11 6.4 11-6.4 5.5 3.2v6.3l-11 6.4v12.7l-5.5 3.2-5.5-3.2v-12.7l-11-6.3z"/>
  </g>
  <g stroke="#000">
    <g fill="#888" stroke-linecap="round" stroke-linejoin="round" paint-order="markers fill stroke">
      <path stroke-width=".7937399999999999" d="M199.5 150.4v6.4l5.6 3.2 5.5 3.2v12.7l5.5 3.2V160l-5.5-3.2-5.5-3.2z"/>
      <path stroke-width=".8" d="M232.6 150.4v6.4l-5.5 3.2-5.5 3.2v12.7l-5.5 3.2V160l5.5-3.2 5.5-3.2zM199.5 150.4l5.6-3.2 5.5 3.2 5.5 3.2 5.5-3.2 5.5-3.1 5.5 3.1-5.5 3.2-5.5 3.2-5.5 3.2-5.5-3.2-5.5-3.2z"/>
    </g>
    <path fill="none" stroke-width="1.3" d="M199.5 150.4l5.6-3.2 11 6.4 11-6.3 5.5 3.1v6.4l-11 6.4v12.7l-5.5 3.2-5.5-3.2v-12.7l-11-6.4z"/>
  </g>
  <g stroke="#000">
    <g fill="#888" stroke-linecap="round" stroke-linejoin="round" paint-order="markers fill stroke">
      <path stroke-width=".7937399999999999" d="M199.5 175.9v6.3l5.6 3.2 5.5 3.2v12.7l5.5 3.2v-19.1l-5.5-3.2-5.5-3.1z"/>
      <path stroke-width=".8" d="M232.6 175.9v6.3l-5.5 3.2-5.5 3.2v12.7l-5.5 3.2v-19.1l5.5-3.2 5.5-3.1z"/>
      <path stroke-width=".8" d="M199.5 175.9l5.6-3.2 5.5 3.2 5.5 3.2 5.5-3.2 5.5-3.2 5.5 3.2-5.5 3.2-5.5 3.1-5.5 3.2-5.5-3.2-5.5-3.1z"/>
    </g>
    <path fill="none" stroke-width="1.3" d="M199.5 175.9l5.6-3.2 11 6.4 11-6.4 5.5 3.2v6.3l-11 6.4v12.7l-5.5 3.2-5.5-3.2v-12.7l-11-6.3z"/>
  </g>
  <g stroke="#000">
    <g fill="#888" stroke-linecap="round" stroke-linejoin="round" paint-order="markers fill stroke">
      <path stroke-width=".7937399999999999" d="M199.5 201.3v6.4l5.6 3.2 5.5 3.2v12.7l5.5 3.2v-19.1l-5.5-3.2-5.5-3.2z"/>
      <path stroke-width=".8" d="M232.6 201.3v6.4l-5.5 3.2-5.5 3.2v12.7l-5.5 3.2v-19.1l5.5-3.2 5.5-3.2z"/>
      <path stroke-width=".8" d="M199.5 201.3l5.6-3.2 5.5 3.2 5.5 3.2 5.5-3.2 5.5-3.1 5.5 3.1-5.5 3.2-5.5 3.2-5.5 3.2-5.5-3.2-5.5-3.2z"/>
    </g>
    <path fill="none" stroke-width="1.3" d="M199.5 201.3l5.6-3.2 11 6.4 11-6.3 5.5 3.1v6.4l-11 6.4v12.7l-5.5 3.2-5.5-3.2V214l-11-6.4z"/>
  </g>
  <g stroke="#000">
    <g fill="#888" stroke-linecap="round" stroke-linejoin="round" paint-order="markers fill stroke">
      <path stroke-width=".7937399999999999" d="M199.5-2.3v6.4l5.6 3.2 5.5 3.2v12.7l5.5 3.2V7.3L210.6 4 205 .9z"/>
      <path stroke-width=".8" d="M232.6-2.3v6.4l-5.5 3.2-5.5 3.2v12.7l-5.5 3.2V7.3l5.5-3.2 5.5-3.2z"/>
      <path stroke-width=".8" d="M199.5-2.3l5.6-3.1 5.5 3.1L216 1l5.5-3.2 5.5-3.1 5.5 3.1-5.5 3.2-5.5 3.2-5.5 3.2-5.5-3.2L205 .9z"/>
    </g>
    <path fill="none" stroke-width="1.3" d="M199.5-2.3l5.6-3.1 11 6.3 11-6.3 5.5 3.1v6.4l-11 6.4v12.7l-5.5 3.2-5.5-3.2V10.5l-11-6.4z"/>
  </g>
  <g stroke="#000">
    <g fill="#888" stroke-linecap="round" stroke-linejoin="round" paint-order="markers fill stroke">
      <path stroke-width=".7937399999999999" d="M199.5-27.7v6.4l5.6 3.1 5.5 3.2v12.7L216 1v-19.1l-5.5-3.1-5.5-3.2z"/>
      <path stroke-width=".8" d="M232.6-27.7v6.4l-5.5 3.1-5.5 3.2v12.7L216.1 1v-19.1l5.5-3.1 5.5-3.2z"/>
      <path stroke-width=".8" d="M199.5-27.7l5.6-3.2 5.5 3.2 5.5 3.2 5.5-3.2 5.5-3.2 5.5 3.2-5.5 3.2-5.5 3.2-5.5 3.1-5.5-3.1-5.5-3.2z"/>
    </g>
    <path fill="none" stroke-width="1.3" d="M199.5-27.7l5.6-3.2 11 6.4 11-6.4 5.5 3.2v6.4l-11 6.3v12.7L216.1 1l-5.5-3.2V-15l-11-6.3z"/>
  </g>
</svg>
